<?xml version="1.0" encoding="UTF-8" standalone="no"?>
<svg
   xmlns:dc="http://purl.org/dc/elements/1.1/"
   xmlns:cc="http://creativecommons.org/ns#"
   xmlns:rdf="http://www.w3.org/1999/02/22-rdf-syntax-ns#"
   xmlns:svg="http://www.w3.org/2000/svg"
   xmlns="http://www.w3.org/2000/svg"
   xmlns:sodipodi="http://sodipodi.sourceforge.net/DTD/sodipodi-0.dtd"
   xmlns:inkscape="http://www.inkscape.org/namespaces/inkscape"
   width="757.41699"
   height="617.24774"
   version="1.1"
   id="svg36"
   sodipodi:docname="sadfish.svg"
   inkscape:version="0.92.4 (5da689c313, 2019-01-14)">
  <defs
     id="defs40" />
  <sodipodi:namedview
     pagecolor="#ffffff"
     bordercolor="#666666"
     borderopacity="1"
     objecttolerance="10"
     gridtolerance="10"
     guidetolerance="10"
     inkscape:pageopacity="0"
     inkscape:pageshadow="2"
     inkscape:window-width="1920"
     inkscape:window-height="1017"
     id="namedview38"
     showgrid="false"
     inkscape:zoom="0.92365554"
     inkscape:cx="263.18387"
     inkscape:cy="328.077"
     inkscape:window-x="-8"
     inkscape:window-y="-8"
     inkscape:window-maximized="1"
     inkscape:current-layer="svg36"
     fit-margin-top="0"
     fit-margin-left="0"
     fit-margin-right="0"
     fit-margin-bottom="0" />
  <title
     id="title2">red sad fish</title>
  <metadata
     id="metadata6">image/svg+xmlrybaVaclavek DavidZS a MS Machovo nam.czrybafish<rdf:RDF>
  <cc:Work
     rdf:about="">
    <dc:format>image/svg+xml</dc:format>
    <dc:type
       rdf:resource="http://purl.org/dc/dcmitype/StillImage" />
    <dc:title>red sad fish</dc:title>
  </cc:Work>
</rdf:RDF>
</metadata>
  <path
     d="m 261.78513,452.40576 0.2446,0.48272 c -36.48963,76.63489 49.96496,110.49506 55.84781,112.69605 l 0.10882,0.21435 c 0.027,-0.0549 0.0557,-0.10547 0.0818,-0.16034 0.0958,0.0352 0.38129,0.16034 0.38129,0.16034 l 9.35004,-37.60968 c 36.49133,-76.63574 -59.55964,-73.36813 -65.44333,-75.56909 l -0.10883,-0.21435 c -0.0261,0.0548 -0.0548,0.10546 -0.0818,0.16119 -0.0949,-0.0352 -0.3804,-0.16119 -0.3804,-0.16119 z"
     stroke-miterlimit="4"
     id="path10998"
     inkscape:connector-curvature="0"
     style="fill:#ffff00;fill-rule:evenodd;stroke:#000000;stroke-width:2;stroke-linecap:round;stroke-linejoin:round;stroke-miterlimit:4;stroke-dasharray:none;stroke-opacity:1" />
  <path
     d="M 637.16822,56.657269 C 665.48127,31.621777 722.9029,4.244946 756.12641,1.569294 698.40876,47.079861 698.25123,74.644113 692.31183,112.98943 c -5.93945,38.34533 -27.66888,89.527 -25.44384,164.05692 2.03173,68.04791 27.98132,131.94592 33.56213,171.7908 5.57989,39.84497 2.24933,73.5791 54.90936,116.32037 C 722.9134,563.18206 651.41834,526.37664 639.11988,514.74499 591.0962,469.32684 608.35383,404.78494 617.26685,367.34844 632.6756,302.62307 595.42603,328.8565 583.31647,283.10741 595.42603,237.35748 631.94959,260.596 617.5124,196.91492 610.05219,164.01076 589.45264,98.848953 637.16822,56.657268 v 0 0 z"
     stroke-miterlimit="4"
     id="rect2007"
     inkscape:connector-curvature="0"
     style="fill:#ffff00;fill-rule:nonzero;stroke:#000000;stroke-width:2;stroke-linecap:round;stroke-linejoin:round;stroke-miterlimit:4;stroke-dasharray:none;stroke-dashoffset:0;stroke-opacity:1" />
  <path
     d="M 637.45984,56.087941 C 665.77289,31.052541 723.19367,3.67571 756.41718,0.999974 698.69959,46.510617 698.542,74.074803 692.60254,112.42011 c -5.93939,38.34531 -27.66882,89.52613 -25.44299,164.05693 2.0318,68.04789 27.98139,131.9459 33.56128,171.78995 5.58081,39.84494 2.24939,73.57993 54.90942,116.3212 C 723.20502,562.61273 651.70997,525.80651 639.4115,514.17565 591.38782,468.7575 608.64545,404.2156 617.55762,366.77825 c 15.40961,-64.72537 -21.84088,-38.49105 -33.95038,-84.24102 12.1095,-45.74909 48.63312,-22.51056 34.19587,-86.19162 -7.45929,-32.90503 -28.05878,-98.065987 19.65673,-140.257669 z"
     stroke-miterlimit="4"
     id="path7373"
     inkscape:connector-curvature="0"
     style="opacity:0.75;fill:#ffff00;fill-rule:nonzero;stroke:#000000;stroke-width:2;stroke-linecap:round;stroke-linejoin:round;stroke-miterlimit:4;stroke-dasharray:none;stroke-dashoffset:0;stroke-opacity:1" />
  <path
     d="M 286.74848,71.247044 C 314.53483,58.571019 336.73084,49.614972 360.6478,43.117741 384.56483,36.620427 415.91498,29.506703 467.43812,22.822384 415.10981,63.29623 417.4715,80.707753 434.54108,112.7828 c -9.58331,-4.62404 -33.79455,-17.156017 -58.58899,-23.060177 -30.2612,-7.20572 -45.10757,-6.22656 -69.0707,-6.39375 -23.96314,-0.16633 -40.67411,4.55117 -48.26139,7.00251 -6.9823,2.255 -3.4115,-3.60715 28.12848,-19.084339 z"
     stroke-miterlimit="4"
     id="path23581"
     inkscape:connector-curvature="0"
     style="opacity:1;fill:#ffff00;fill-rule:nonzero;stroke:#000000;stroke-width:2;stroke-linecap:round;stroke-linejoin:round;stroke-miterlimit:4;stroke-dasharray:none;stroke-dashoffset:0;stroke-opacity:1" />
  <path
     d="m 166.13025,169.14669 c 0,25.73789 -21.18277,46.60307 -47.31343,46.60307 -26.13154,0 -47.31428,-20.86518 -47.31428,-46.60307 0,-25.73788 21.18274,-46.60222 47.31428,-46.60222 26.13066,0 47.31343,20.86434 47.31343,46.60222 z"
     stroke-miterlimit="4"
     id="path2777"
     inkscape:connector-curvature="0"
     style="fill:#ffff00;fill-rule:nonzero;stroke:#000000;stroke-width:2;stroke-linecap:round;stroke-linejoin:round;stroke-miterlimit:4;stroke-dasharray:none;stroke-dashoffset:0;stroke-opacity:1" />
  <path
     d="m 383.83445,273.72387 c 0,49.27564 -19.32422,93.90924 -50.55515,126.22351 -31.23004,32.3151 -84.99038,51.93274 -107.32742,52.20456 C 211.73487,452.32516 89.9876,423.36852 58.75754,391.05428 22.95649,360.9024 8.60508,338.05486 4.2289,306.51229 2.51829,286.78488 20.11257,213.72968 56.50034,182.24713 87.7304,149.93202 183.14503,95.189493 230.76661,95.189493 c 47.62243,0 71.28265,19.995777 102.51269,52.310897 31.23093,32.31424 50.55515,76.94785 50.55515,126.22348 z"
     stroke-miterlimit="4"
     id="path1883"
     inkscape:connector-curvature="0"
     style="fill:#ffff00;fill-rule:nonzero;stroke:#000000;stroke-width:2;stroke-linecap:round;stroke-linejoin:round;stroke-miterlimit:4;stroke-dasharray:none;stroke-dashoffset:0;stroke-opacity:1" />
  <path
     d="m 384.12262,272.15054 c 0,49.27563 -19.32513,93.90924 -50.55517,126.22433 -31.23096,32.31427 -84.99042,51.93195 -107.32746,52.20371 C 212.02213,450.7518 85.05272,420.08032 53.8218,387.76611 18.02118,357.61508 8.89269,336.4815 4.5166,304.93893 2.80598,285.21154 20.40026,212.15719 56.7876,180.67378 88.01766,148.35865 183.43232,93.616153 231.05475,93.616153 c 47.62155,0 71.28174,19.995767 102.5127,52.310877 31.23004,32.31425 50.55517,76.94786 50.55517,126.22351 z"
     stroke-miterlimit="4"
     id="path10986"
     inkscape:connector-curvature="0"
     style="fill:#ffff00;fill-rule:nonzero;stroke:#000000;stroke-width:2;stroke-linecap:round;stroke-linejoin:round;stroke-miterlimit:4;stroke-dasharray:none;stroke-dashoffset:0;stroke-opacity:1" />
  <path
     d="m 309.10465,81.377403 c -29.83029,0 -58.31827,4.87355 -84.43765,13.67062 84.03549,28.304987 143.46713,97.543817 143.46713,178.449497 0,80.90567 -59.43164,150.17197 -143.46713,178.47696 26.11938,8.79703 54.60736,13.67059 84.43765,13.67059 62.90146,0 119.87741,-21.52371 161.12784,-56.30386 20.62561,-17.39011 55.64581,-59.80728 101.50201,-80.81821 45.8562,-21.01095 62.50708,-20.61654 62.50708,-47.12954 0,-26.51297 -21.05731,-27.53931 -66.91357,-52.4961 C 521.47187,203.94145 490.8581,155.05506 470.23249,137.66755 428.98206,102.89423 372.00611,81.377403 309.10465,81.377403 Z"
     stroke-miterlimit="4"
     id="path1874"
     inkscape:connector-curvature="0"
     style="fill:#ffff00;fill-rule:nonzero;stroke:#000000;stroke-width:2;stroke-linecap:round;stroke-linejoin:round;stroke-miterlimit:4;stroke-dasharray:none;stroke-dashoffset:0;stroke-opacity:1" />
  <g
     style="stroke:#000000;stroke-width:2.31499505;stroke-miterlimit:4;stroke-dasharray:none;stroke-opacity:1"
     transform="matrix(0.8705,0,0,0.857415,-65.1884,-32.609067)"
     id="g9179">
    <path
       d="m 287.73077,227.30701 c 0.012,30.02701 -24.32599,54.37399 -54.35202,54.37399 -30.02699,0 -54.36499,-24.34699 -54.35299,-54.37399 -0.012,-30.026 24.326,-54.373 54.35299,-54.373 30.02603,0 54.36402,24.347 54.35202,54.373 z"
       stroke-miterlimit="4"
       id="path1886"
       inkscape:connector-curvature="0"
       style="fill:#ffff00;fill-rule:nonzero;stroke:#000000;stroke-width:2.31499505;stroke-linecap:round;stroke-linejoin:round;stroke-miterlimit:4;stroke-dasharray:none;stroke-dashoffset:0;stroke-opacity:1" />
    <path
       d="m 263.94577,246.914 c 0.006,8.69901 -7.38602,15.75299 -16.50801,15.75299 -9.121,0 -16.51401,-7.05398 -16.508,-15.75299 -0.006,-8.698 7.387,-15.752 16.508,-15.752 9.12199,0 16.51402,7.054 16.50801,15.752 z"
       stroke-miterlimit="4"
       id="path2775"
       inkscape:connector-curvature="0"
       style="fill:#ffff00;fill-rule:nonzero;stroke:#000000;stroke-width:2.31499505;stroke-linecap:round;stroke-linejoin:round;stroke-miterlimit:4;stroke-dasharray:none;stroke-dashoffset:0;stroke-opacity:1" />
    <path
       d="M 303.34778,282.233 C 403.79678,485.47 83.598968,405.13199 83.598968,405.13199"
       stroke-miterlimit="4"
       id="path6337"
       inkscape:connector-curvature="0"
       style="fill:#ffff00;fill-rule:evenodd;stroke:#000000;stroke-width:2.31499505;stroke-linecap:round;stroke-linejoin:round;stroke-miterlimit:4;stroke-dasharray:none;stroke-opacity:1;marker-start:none" />
    <path
       d="M 289.00476,290.04098 C 315.26578,276.341 315.26578,276.341 315.26578,276.341"
       stroke-miterlimit="4"
       id="path9184"
       inkscape:connector-curvature="0"
       style="fill:#ffff00;fill-rule:evenodd;stroke:#000000;stroke-width:2.31499505;stroke-linecap:round;stroke-linejoin:round;stroke-miterlimit:4;stroke-dasharray:none;stroke-opacity:1" />
  </g>
  <path
     d="m 309.10465,81.377403 c -29.83029,0 -58.31827,4.87355 -84.43765,13.67062 84.03549,28.304987 143.46713,97.543817 143.46713,178.449497 0,80.90567 -59.43164,150.17197 -143.46713,178.47696 26.11938,8.79703 54.60736,13.67059 84.43765,13.67059 62.90146,0 119.87741,-21.52371 161.12784,-56.30386 20.62561,-17.39011 55.64581,-59.80728 101.50201,-80.81821 45.8562,-21.01095 62.50708,-20.61654 62.50708,-47.12954 0,-26.51297 -21.05731,-27.53931 -66.91357,-52.4961 C 521.47187,203.94145 490.8581,155.05506 470.23249,137.66755 428.98206,102.89423 372.00611,81.377403 309.10465,81.377403 Z"
     stroke-miterlimit="4"
     id="path17237"
     inkscape:connector-curvature="0"
     style="fill:#ffff00;fill-rule:nonzero;stroke:#000000;stroke-width:2;stroke-linecap:round;stroke-linejoin:round;stroke-miterlimit:4;stroke-dasharray:none;stroke-dashoffset:0;stroke-opacity:1" />
  <path
     d="M 341.07114,49.31368 C 302.10059,65.11395 315.32349,80.850953 315.32349,80.850953"
     stroke-miterlimit="4"
     id="path27156"
     inkscape:connector-curvature="0"
     style="fill:#ffff00;fill-rule:evenodd;stroke:#000000;stroke-width:2;stroke-linecap:round;stroke-linejoin:round;stroke-miterlimit:4;stroke-dasharray:none;stroke-opacity:1" />
  <path
     d="m 406.78864,32.526608 c -71.63168,21.574707 -54.6134,51.001195 -54.6134,51.001195"
     stroke-miterlimit="4"
     id="path28946"
     inkscape:connector-curvature="0"
     style="fill:#ffff00;fill-rule:evenodd;stroke:#000000;stroke-width:2;stroke-linecap:round;stroke-linejoin:round;stroke-miterlimit:4;stroke-dasharray:none;stroke-opacity:1" />
  <path
     d="M 465.10523,23.66591 C 372.57975,49.173322 388.08515,92.626683 388.08515,92.626683"
     stroke-miterlimit="4"
     id="path28948"
     inkscape:connector-curvature="0"
     style="fill:#ffff00;fill-rule:evenodd;stroke:#000000;stroke-width:2;stroke-linecap:round;stroke-linejoin:round;stroke-miterlimit:4;stroke-dasharray:none;stroke-opacity:1" />
  <path
     d="m 309.10465,81.377403 c -29.83029,0 -58.31827,4.87355 -84.43765,13.67062 84.03549,28.304987 143.46713,97.543817 143.46713,178.449497 0,80.90567 -59.43164,150.17197 -143.46713,178.47696 26.11938,8.79703 54.60736,13.67059 84.43765,13.67059 62.90146,0 119.87741,-21.52371 161.12784,-56.30386 20.62561,-17.39011 55.64581,-59.80728 101.50201,-80.81821 45.8562,-21.01095 62.50708,-20.61654 62.50708,-47.12954 0,-26.51297 -21.05731,-27.53931 -66.91357,-52.4961 C 521.47187,203.94145 490.8581,155.05506 470.23249,137.66755 428.98206,102.89423 372.00611,81.377403 309.10465,81.377403 Z"
     stroke-miterlimit="4"
     id="path5587"
     inkscape:connector-curvature="0"
     style="fill:#ffff00;fill-rule:nonzero;stroke:#000000;stroke-width:2;stroke-linecap:round;stroke-linejoin:round;stroke-miterlimit:4;stroke-dasharray:none;stroke-dashoffset:0;stroke-opacity:1" />
  <g
     transform="matrix(0.8705,0,0,0.857415,-65.1884,-32.609067)"
     id="g10976"
     style="opacity:1;stroke:#000000;stroke-width:2.31499505;stroke-miterlimit:4;stroke-dasharray:none;stroke-opacity:1">
    <path
       d="M 562.47272,732.19702 C 528.88776,794.31 453.09076,722.79199 434.59677,691.54101 c -20.99799,-33.27801 -34.91501,-77.19 18,-160.63104 7.392,-9.69299 -4.55399,-27.64398 33.60401,-24.31198 24.73599,2.16001 3.66699,34.48398 19.95001,51.97403 18.01394,16.73499 37.72494,44.57001 50.11593,69.01697 14.30201,28.216 23.13202,72.16101 6.206,104.60803 z"
       stroke-miterlimit="4"
       id="path9185"
       inkscape:connector-curvature="0"
       style="fill:#ffff00;fill-rule:nonzero;stroke:#000000;stroke-width:2.31499505;stroke-linecap:round;stroke-linejoin:round;stroke-miterlimit:4;stroke-dasharray:none;stroke-dashoffset:0;stroke-opacity:1" />
    <path
       d="M 562.47272,732.19702 C 528.88776,794.31 453.09076,722.79199 434.59677,691.54101 c -20.99799,-33.27801 -34.91501,-77.19 18,-160.63104 7.392,-9.69299 -4.55399,-27.64398 33.60401,-24.31198 24.73599,2.16001 3.66699,34.48398 19.95001,51.97403 18.01394,16.73499 37.72494,44.57001 50.11593,69.01697 14.30201,28.216 23.13202,72.16101 6.206,104.60803 z"
       stroke-miterlimit="4"
       id="path10081"
       inkscape:connector-curvature="0"
       style="fill:#ffff00;fill-rule:nonzero;stroke:#000000;stroke-width:2.31499505;stroke-linecap:round;stroke-linejoin:round;stroke-miterlimit:4;stroke-dasharray:none;stroke-dashoffset:0;stroke-opacity:1" />
  </g>
  <circle
     style="fill:#ffffff;stroke:#000000;stroke-width:5"
     id="svg_1"
     cx="128.8069"
     cy="169.10637"
     r="53.712898" />
  <circle
     style="fill:#000000;stroke:#000000;stroke-width:5"
     id="svg_2"
     cx="110.80691"
     cy="193.10637"
     r="15.2969" />
  <ellipse
     style="opacity:1;fill:#ffff00;fill-opacity:1;fill-rule:nonzero;stroke:none;stroke-width:2;stroke-miterlimit:4;stroke-dasharray:none;stroke-opacity:1"
     id="path840"
     cx="-120.92403"
     cy="333.38663"
     rx="122.33998"
     ry="75.785828"
     transform="rotate(-53.050892)" />
  <path
     style="fill:#000000;stroke:#000000;stroke-width:5;stroke-dasharray:none"
     inkscape:connector-curvature="0"
     id="svg_4"
     stroke-linecap="null"
     stroke-linejoin="null"
     d="m 112.15363,360.41573 c -2.03873,-33.31345 -191.829284,-64.29555 -67.46722,-46.09112 124.36103,18.20345 67.46722,46.09112 67.46722,46.09112 z" />
</svg>
