<?xml version="1.0" encoding="UTF-8" standalone="no"?>
<svg
   xmlns:dc="http://purl.org/dc/elements/1.1/"
   xmlns:cc="http://creativecommons.org/ns#"
   xmlns:rdf="http://www.w3.org/1999/02/22-rdf-syntax-ns#"
   xmlns:svg="http://www.w3.org/2000/svg"
   xmlns="http://www.w3.org/2000/svg"
   xmlns:sodipodi="http://sodipodi.sourceforge.net/DTD/sodipodi-0.dtd"
   xmlns:inkscape="http://www.inkscape.org/namespaces/inkscape"
   viewBox="0 0 1033.7636 400.50418"
   height="400.50418"
   width="1033.7637"
   xml:space="preserve"
   id="svg2"
   version="1.1"
   sodipodi:docname="tuna.svg"
   inkscape:version="0.92.4 (5da689c313, 2019-01-14)"><sodipodi:namedview
     pagecolor="#ffffff"
     bordercolor="#666666"
     borderopacity="1"
     objecttolerance="10"
     gridtolerance="10"
     guidetolerance="10"
     inkscape:pageopacity="0"
     inkscape:pageshadow="2"
     inkscape:window-width="1920"
     inkscape:window-height="1017"
     id="namedview225"
     showgrid="false"
     fit-margin-top="0"
     fit-margin-left="0"
     fit-margin-right="0"
     fit-margin-bottom="0"
     inkscape:zoom="0.84670104"
     inkscape:cx="481.7505"
     inkscape:cy="160.33316"
     inkscape:window-x="-8"
     inkscape:window-y="-8"
     inkscape:window-maximized="1"
     inkscape:current-layer="svg2" /><metadata
     id="metadata8"><rdf:RDF><cc:Work
         rdf:about=""><dc:format>image/svg+xml</dc:format><dc:type
           rdf:resource="http://purl.org/dc/dcmitype/StillImage" /><dc:title></dc:title></cc:Work></rdf:RDF></metadata><defs
     id="defs6"><clipPath
       id="clipPath30"
       clipPathUnits="userSpaceOnUse"><path
         id="path28"
         d="m 4886.1,2581.97 c 193.23,113.28 506.37,-253.18 632.96,-359.78 106.61,-93.28 473.06,-259.85 626.3,-186.57 -133.25,246.53 -526.36,139.93 -566.33,493.05 -13.33,146.59 33.31,246.53 159.91,326.49 59.97,39.98 133.26,86.62 206.54,106.6 53.31,13.32 119.93,0 166.57,33.32 -13.32,13.32 -19.99,46.64 -33.31,66.62 6.18,2.06 33.36,-6.7 64.43,-15.46 69.46,-19.59 158.34,-39.17 75.48,62.1 33.32,-13.32 95.72,-51.04 135.7,-51.04 -6.67,13.34 -29.09,57.7 -35.76,77.68 33.32,-13.32 103.17,-40.31 136.48,-40.31 0,6.66 -43.2,46.98 -43.2,53.65 26.66,-13.34 100.77,-39.18 127.42,-45.86 0,13.34 -47.46,52.51 -47.46,59.18 19.99,-6.67 60.46,-23.85 80.45,-30.51 6.67,6.66 20.25,33.27 26.91,39.93 -93.28,53.3 -227.29,97.19 -327.23,117.18 L 4886.1,2581.97"
         inkscape:connector-curvature="0" /></clipPath><clipPath
       id="clipPath60"
       clipPathUnits="userSpaceOnUse"><path
         id="path58"
         d="m 2960.56,2428.73 c 146.58,-113.26 339.8,-113.26 513.03,-179.88 139.92,-53.3 313.15,-126.6 466.4,-106.6 -46.64,59.96 -133.26,59.96 -166.57,139.9 -33.31,79.96 13.32,186.56 53.3,259.86 l -866.16,-113.28"
         inkscape:connector-curvature="0" /></clipPath><clipPath
       id="clipPath78"
       clipPathUnits="userSpaceOnUse"><path
         id="path76"
         d="m 3107.14,4387.59 c 126.6,126.59 266.51,233.2 413.09,339.8 113.27,86.62 293.16,253.19 439.74,286.5 113.27,26.65 86.62,-19.99 66.64,-119.93 -19.99,-73.29 -46.64,-146.58 -33.32,-219.87 33.32,-173.23 239.86,-166.57 379.78,-173.23 79.95,-6.67 193.22,0 266.51,-39.98 153.24,-86.62 -73.29,-239.86 -139.92,-339.8 l -1392.52,266.51"
         inkscape:connector-curvature="0" /></clipPath><clipPath
       id="clipPath124"
       clipPathUnits="userSpaceOnUse"><path
         id="path122"
         d="m 4812.81,4334.29 c 286.5,226.54 619.64,559.67 1012.75,586.32 113.26,6.67 113.26,-13.32 46.64,-93.28 -73.29,-73.29 -166.57,-133.25 -239.87,-199.88 -106.6,-99.94 -293.16,-266.51 -153.24,-406.43 79.95,-79.95 219.87,-106.6 319.82,-146.58 33.31,-13.33 133.25,-33.31 146.57,-73.29 6.67,-26.65 -39.97,-106.6 -46.63,-139.92 l -1086.04,473.06"
         inkscape:connector-curvature="0" /></clipPath></defs><path
     id="path16"
     style="fill:#16171d;fill-opacity:1;fill-rule:nonzero;stroke:none;stroke-width:0.13333333"
     d="m 549.8971,325.24169 c 25.764,-15.104 67.516,33.75733 84.39467,47.97067 14.21466,12.43733 63.07466,34.64666 83.50666,24.876 -17.76666,-32.87067 -70.18133,-18.65734 -75.51066,-65.74 -1.77734,-19.544 4.44133,-32.87067 21.32133,-43.532 7.996,-5.33067 17.768,-11.54933 27.53867,-14.21333 7.108,-1.776 15.99066,0 22.20933,-4.44267 -1.776,-1.776 -2.66533,-6.21867 -4.44133,-8.88267 2.66533,-0.888 34.64533,13.32534 18.65466,-6.21866 4.44267,1.776 12.76267,6.80533 18.09334,6.80533 -0.888,-1.77867 -3.87867,-7.69333 -4.768,-10.35733 4.44266,1.776 13.756,5.37466 18.19733,5.37466 0,-0.888 -5.75867,-6.26533 -5.75867,-7.15333 3.55334,1.77867 13.43467,5.224 16.988,6.11467 0,-1.77867 -6.328,-7.00267 -6.328,-7.892 2.66533,0.88933 8.06133,3.18133 10.72667,4.06933 0.88933,-0.888 2.7,-4.436 3.588,-5.324 -12.43734,-7.10667 -30.30533,-12.95867 -43.63067,-15.624"
     inkscape:connector-curvature="0" /><path
     id="path18"
     style="fill:#16171d;fill-opacity:1;fill-rule:nonzero;stroke:none;stroke-width:0.13333333"
     d="m 293.15844,345.67369 c 19.544,15.10133 45.30667,15.10133 68.404,23.984 18.656,7.10667 41.75333,16.88 62.18667,14.21333 -6.21867,-7.99466 -17.768,-7.99466 -22.20934,-18.65333 -4.44133,-10.66133 1.776,-24.87467 7.10667,-34.648"
     inkscape:connector-curvature="0" /><path
     id="path20"
     style="fill:#16171d;fill-opacity:1;fill-rule:nonzero;stroke:none;stroke-width:0.13333333"
     d="m 312.70244,84.492363 c 16.88,-16.87866 35.53467,-31.09333 55.07867,-45.30666 15.10266,-11.54933 39.088,-33.7586697 58.63333,-38.19999969 15.10133,-3.55333001 11.548,2.66532999 8.884,15.99066969 -2.66533,9.772 -6.21867,19.544 -4.44267,29.316 4.44267,23.09733 31.98134,22.20933 50.63734,23.09733 10.66,0.88933 25.76266,0 35.53466,5.33066 20.432,11.54934 -9.772,31.981337 -18.656,45.306667"
     inkscape:connector-curvature="0" /><path
     id="path22"
     style="fill:#16171d;fill-opacity:1;fill-rule:nonzero;stroke:none;stroke-width:0.13333333"
     d="m 540.1251,91.599033 c 38.2,-30.20533 82.61867,-74.62266 135.03333,-78.176 15.10134,-0.88933 15.10134,1.776 6.21867,12.43734 -9.772,9.772 -22.20933,17.76666 -31.98267,26.65066 -14.21333,13.32534 -39.08799,35.53467 -20.43199,54.190667 10.65999,10.66 29.31599,14.21333 42.64266,19.544 4.44133,1.77733 17.76667,4.44133 19.54267,9.772 0.88933,3.55333 -5.32934,14.21333 -6.21734,18.656"
     inkscape:connector-curvature="0" /><g
     id="g24"
     transform="matrix(0.13333333,0,0,-0.13333333,-101.58288,669.50435)"><g
       clip-path="url(#clipPath30)"
       id="g26"><path
         id="path32"
         style="fill:#6dbdeb;fill-opacity:1;fill-rule:nonzero;stroke:none"
         d="m 5030.83,2688.22 c 122.64,-25.88 218.37,-126.33 302.5,-212.83 82.37,-84.69 163.21,-168.38 258.31,-239.24 221.7,-165.17 483.59,-209.45 753.52,-214.74 4.84,-0.1 4.83,7.4 0,7.5 -138.45,2.71 -275.89,10.88 -409.99,47.96 -137.89,38.15 -264.9,106.14 -376.99,194.28 -96.13,75.59 -175.96,167.23 -262.5,252.93 -73.35,72.64 -158.91,149.44 -262.86,171.37 -4.71,1 -6.73,-6.23 -1.99,-7.23"
         inkscape:connector-curvature="0" /><path
         id="path34"
         style="fill:#6dbdeb;fill-opacity:1;fill-rule:nonzero;stroke:none"
         d="m 5160.75,2766.09 c 94.6,-55.62 158.68,-147.42 232.57,-226.07 80.33,-85.51 154.43,-175.96 246.32,-249.73 78.14,-62.75 167.57,-109.31 259.71,-147.73 113.35,-47.29 228.35,-63.38 348.96,-80.18 4.73,-0.66 6.77,6.57 1.99,7.23 -115.2,16.05 -224.6,31.17 -333.45,73.91 -113.65,44.6 -219.14,105.09 -311.55,185.13 -82.58,71.51 -153.2,157.87 -226.77,238.36 -66.93,73.22 -127.13,154.47 -213.99,205.57 -4.18,2.46 -7.95,-4.03 -3.79,-6.49"
         inkscape:connector-curvature="0" /><path
         id="path36"
         style="fill:#6dbdeb;fill-opacity:1;fill-rule:nonzero;stroke:none"
         d="m 5285.83,2820.84 c 148.33,-151.82 224.8,-357.97 382.73,-501.8 68.83,-62.67 152.23,-106.68 238.83,-139.27 101.81,-38.32 209.51,-50.04 313.44,-79.89 4.66,-1.34 6.63,5.9 1.99,7.23 -94.01,26.99 -191.11,39.47 -284.47,69.76 -102.43,33.25 -196.55,85.61 -276.24,158.19 -153.32,139.63 -226.63,343.36 -370.97,491.09 -3.39,3.46 -8.69,-1.85 -5.31,-5.31"
         inkscape:connector-curvature="0" /><path
         id="path38"
         style="fill:#6dbdeb;fill-opacity:1;fill-rule:nonzero;stroke:none"
         d="m 5408.58,2799.94 c 72.69,-94.74 123.62,-204.35 207.25,-290.76 3.37,-3.48 8.67,1.84 5.31,5.31 -83.2,85.94 -133.79,195 -206.07,289.24 -2.9,3.77 -9.43,0.04 -6.49,-3.79"
         inkscape:connector-curvature="0" /><path
         id="path40"
         style="fill:#6dbdeb;fill-opacity:1;fill-rule:nonzero;stroke:none"
         d="m 5471.54,2837.5 c 30.98,-73.52 73.5,-139.43 130.96,-195 3.49,-3.36 8.79,1.95 5.31,5.31 -56.51,54.63 -98.59,119.44 -129.04,191.68 -1.85,4.38 -9.11,2.46 -7.23,-1.99"
         inkscape:connector-curvature="0" /><path
         id="path42"
         style="fill:#6dbdeb;fill-opacity:1;fill-rule:nonzero;stroke:none"
         d="m 5541.54,2837.5 c 13.15,-57.87 66.12,-94.08 107.63,-131.66 3.58,-3.24 8.9,2.05 5.31,5.31 -40.45,36.6 -92.9,71.97 -105.71,128.34 -1.06,4.71 -8.3,2.72 -7.23,-1.99"
         inkscape:connector-curvature="0" /><path
         id="path44"
         style="fill:#6dbdeb;fill-opacity:1;fill-rule:nonzero;stroke:none"
         d="m 5611.91,2853.26 c 13.73,-26.91 31.17,-50.78 53.92,-70.76 3.62,-3.16 8.95,2.11 5.31,5.31 -22.28,19.57 -39.31,42.89 -52.74,69.24 -2.2,4.32 -8.67,0.51 -6.49,-3.79"
         inkscape:connector-curvature="0" /><path
         id="path46"
         style="fill:#6dbdeb;fill-opacity:1;fill-rule:nonzero;stroke:none"
         d="m 5648.58,2879.94 c 13.17,-22.48 30.75,-40.76 50.59,-57.44 3.68,-3.09 9.01,2.21 5.31,5.31 -19.36,16.27 -36.56,33.97 -49.41,55.92 -2.45,4.16 -8.93,0.39 -6.49,-3.79"
         inkscape:connector-curvature="0" /><path
         id="path48"
         style="fill:#6dbdeb;fill-opacity:1;fill-rule:nonzero;stroke:none"
         d="m 5701.91,2903.26 c 16.72,-27.13 30.68,-56.52 58.02,-74.67 4.04,-2.67 7.79,3.81 3.79,6.49 -26.11,17.32 -39.38,46.09 -55.32,71.97 -2.54,4.12 -9.02,0.35 -6.49,-3.79"
         inkscape:connector-curvature="0" /><path
         id="path50"
         style="fill:#6dbdeb;fill-opacity:1;fill-rule:nonzero;stroke:none"
         d="m 5745.24,2923.26 c 13.02,-19.51 26.05,-39 40.59,-57.42 3,-3.79 8.27,1.54 5.31,5.31 -14.15,17.89 -26.76,36.94 -39.41,55.9 -2.68,4 -9.17,0.25 -6.49,-3.79"
         inkscape:connector-curvature="0" /><path
         id="path52"
         style="fill:#6dbdeb;fill-opacity:1;fill-rule:nonzero;stroke:none"
         d="m 4976.59,2618.59 c 121.1,-52.14 234.36,-117.09 334.4,-203.53 89.55,-77.38 168.71,-165.51 263.17,-237.38 102.08,-77.68 219.89,-115.34 340.74,-153.27 128.8,-40.43 256.16,-45.8 390.26,-49.66 4.84,-0.14 4.82,7.36 0,7.5 -133.16,3.84 -260.17,9.61 -388.26,49.39 -131.63,40.88 -253.72,85.18 -363.11,171.19 -93.22,73.3 -171.96,163.05 -262.82,239.06 -92.73,77.56 -199.99,135.55 -310.59,183.19 -4.39,1.87 -8.22,-4.57 -3.79,-6.49"
         inkscape:connector-curvature="0" /></g></g><g
     id="g54"
     transform="matrix(0.13333333,0,0,-0.13333333,-101.58288,669.50435)"><g
       clip-path="url(#clipPath60)"
       id="g56"><path
         id="path62"
         style="fill:#6dbdeb;fill-opacity:1;fill-rule:nonzero;stroke:none"
         d="m 3069.93,2411.91 c 60.87,-37.44 135.31,-37.65 202.82,-56.4 82.03,-22.8 162.84,-53.91 243.71,-80.61 85.26,-28.16 170.14,-57.48 255.46,-85.47 76.39,-25.04 152,-55.41 233.23,-58.02 4.84,-0.16 4.83,7.34 0,7.5 -86.57,2.79 -168.27,37.13 -249.63,63.79 -79.19,25.97 -157.98,53.14 -237.06,79.43 -75.54,25.1 -150.94,50.84 -226.63,75.41 -71.47,23.2 -153.05,20.82 -218.11,60.86 -4.14,2.54 -7.9,-3.95 -3.79,-6.49"
         inkscape:connector-curvature="0" /><path
         id="path64"
         style="fill:#6dbdeb;fill-opacity:1;fill-rule:nonzero;stroke:none"
         d="m 3367.49,2391.54 c 218.37,-65.92 409.55,-203.88 636.67,-243.32 4.72,-0.82 6.75,6.41 1.99,7.23 -227.04,39.43 -418.31,177.4 -636.67,243.32 -4.64,1.41 -6.61,-5.84 -1.99,-7.23"
         inkscape:connector-curvature="0" /><path
         id="path66"
         style="fill:#6dbdeb;fill-opacity:1;fill-rule:nonzero;stroke:none"
         d="m 3569.17,2382.5 c 70.61,-81.54 171.52,-136.64 274.99,-164.28 4.67,-1.25 6.66,5.98 1.99,7.23 -102.16,27.28 -201.96,81.84 -271.68,162.36 -3.17,3.67 -8.45,-1.66 -5.3,-5.31"
         inkscape:connector-curvature="0" /><path
         id="path68"
         style="fill:#6dbdeb;fill-opacity:1;fill-rule:nonzero;stroke:none"
         d="m 3631.91,2383.26 c 45.28,-60.41 115.96,-98.98 188.92,-115.04 4.71,-1.05 6.71,6.19 1.99,7.23 -70.85,15.6 -140.37,52.81 -184.43,111.6 -2.86,3.83 -9.38,0.1 -6.48,-3.79"
         inkscape:connector-curvature="0" /><path
         id="path70"
         style="fill:#6dbdeb;fill-opacity:1;fill-rule:nonzero;stroke:none"
         d="m 3685.83,2379.18 c 34.2,-33.24 74.24,-56.52 121.66,-64.3 4.73,-0.78 6.76,6.45 1.99,7.23 -46.28,7.58 -84.95,29.9 -118.34,62.38 -3.47,3.36 -8.78,-1.93 -5.31,-5.31"
         inkscape:connector-curvature="0" /></g></g><g
     id="g72"
     transform="matrix(0.13333333,0,0,-0.13333333,-101.58288,669.50435)"><g
       clip-path="url(#clipPath78)"
       id="g74"><path
         id="path80"
         style="fill:#6dbdeb;fill-opacity:1;fill-rule:nonzero;stroke:none"
         d="m 3197.8,4402.51 c 56.83,53.84 110.1,111.22 165.62,166.37 66.58,66.13 140.01,120.17 217.03,173.36 158.44,109.43 315.59,220.69 476.6,326.35 4.02,2.65 0.26,9.14 -3.79,6.48 -160.99,-105.66 -318.25,-216.8 -476.59,-326.35 -68.36,-47.29 -133.88,-94.14 -194.53,-151.24 -65.1,-61.3 -124.72,-128.15 -189.64,-189.67 -3.52,-3.33 1.8,-8.63 5.3,-5.3"
         inkscape:connector-curvature="0" /><path
         id="path82"
         style="fill:#6dbdeb;fill-opacity:1;fill-rule:nonzero;stroke:none"
         d="m 3321.14,4419.18 c 111.55,124.34 247.57,222.62 373.36,331.57 125.87,109.02 250.6,225.42 405.88,291.17 4.44,1.88 0.61,8.34 -3.79,6.48 -150.58,-63.77 -273.23,-175.36 -395.01,-281.57 -129.49,-112.94 -270.58,-213.98 -385.75,-342.35 -3.21,-3.59 2.07,-8.91 5.31,-5.3"
         inkscape:connector-curvature="0" /><path
         id="path84"
         style="fill:#6dbdeb;fill-opacity:1;fill-rule:nonzero;stroke:none"
         d="m 3428.39,4369.94 c 72.21,124.68 175.2,224.85 281.53,320.34 112.52,101.05 224.72,202.42 341.22,298.9 3.73,3.09 -1.61,8.36 -5.31,5.3 -116.49,-96.47 -228.74,-197.8 -341.21,-298.89 -106.79,-95.99 -210.19,-196.65 -282.71,-321.86 -2.43,-4.2 4.06,-7.97 6.48,-3.79"
         inkscape:connector-curvature="0" /><path
         id="path86"
         style="fill:#6dbdeb;fill-opacity:1;fill-rule:nonzero;stroke:none"
         d="m 3555.57,4385.16 c 13.37,114.74 122.79,208.65 195.66,290.7 94.99,106.97 205.55,199.64 319.15,286.06 3.79,2.89 0.06,9.41 -3.79,6.48 -119.24,-90.7 -232.83,-188.32 -332.46,-300.51 -71.06,-80.02 -172.97,-170.41 -186.06,-282.73 -0.56,-4.8 6.95,-4.74 7.5,0"
         inkscape:connector-curvature="0" /><path
         id="path88"
         style="fill:#6dbdeb;fill-opacity:1;fill-rule:nonzero;stroke:none"
         d="m 3625.06,4383.27 c 110.01,206.84 261.29,401.24 455.32,535.32 3.95,2.73 0.21,9.24 -3.79,6.48 -195.03,-134.78 -347.41,-330.07 -458.01,-538.01 -2.27,-4.27 4.21,-8.06 6.48,-3.79"
         inkscape:connector-curvature="0" /><path
         id="path90"
         style="fill:#6dbdeb;fill-opacity:1;fill-rule:nonzero;stroke:none"
         d="m 3722.1,4390.83 c 52.28,153.19 143.02,326.04 291.62,404.43 4.27,2.25 0.48,8.73 -3.79,6.47 -150.55,-79.42 -242.13,-253.79 -295.06,-408.9 -1.56,-4.59 5.68,-6.55 7.23,-2"
         inkscape:connector-curvature="0" /><path
         id="path92"
         style="fill:#6dbdeb;fill-opacity:1;fill-rule:nonzero;stroke:none"
         d="m 3775.44,4377.5 c 57.39,158.01 149.9,325.84 298.28,414.42 4.14,2.48 0.37,8.96 -3.79,6.48 -150.24,-89.69 -243.64,-258.99 -301.73,-418.91 -1.65,-4.55 5.6,-6.5 7.24,-1.99"
         inkscape:connector-curvature="0" /><path
         id="path94"
         style="fill:#6dbdeb;fill-opacity:1;fill-rule:nonzero;stroke:none"
         d="m 3841.72,4389.94 c 57.71,111.55 121.17,220.86 225.33,295.32 3.89,2.78 0.15,9.3 -3.79,6.47 -105.34,-75.29 -169.58,-185.06 -228.01,-298 -2.22,-4.3 4.25,-8.09 6.47,-3.79"
         inkscape:connector-curvature="0" /><path
         id="path96"
         style="fill:#6dbdeb;fill-opacity:1;fill-rule:nonzero;stroke:none"
         d="m 3935.44,4370.83 c 22.69,103.66 71.09,221.54 171.61,271.09 4.33,2.14 0.53,8.61 -3.79,6.48 -102.23,-50.39 -151.97,-170.11 -175.06,-275.57 -1.03,-4.71 6.2,-6.72 7.24,-2"
         inkscape:connector-curvature="0" /><path
         id="path98"
         style="fill:#6dbdeb;fill-opacity:1;fill-rule:nonzero;stroke:none"
         d="m 4008.77,4354.17 c 21.84,86.45 46.56,178.32 109.03,245.01 3.3,3.53 -1.99,8.84 -5.3,5.3 -63.34,-67.62 -88.82,-160.66 -110.97,-248.32 -1.18,-4.7 6.05,-6.68 7.24,-1.99"
         inkscape:connector-curvature="0" /><path
         id="path100"
         style="fill:#6dbdeb;fill-opacity:1;fill-rule:nonzero;stroke:none"
         d="m 4105.44,4347.5 c 20.05,82.62 32.89,166.32 40.13,251 0.41,4.82 -7.09,4.78 -7.5,0 -7.18,-84.02 -19.98,-167.05 -39.87,-249.01 -1.13,-4.7 6.1,-6.69 7.24,-1.99"
         inkscape:connector-curvature="0" /><path
         id="path102"
         style="fill:#6dbdeb;fill-opacity:1;fill-rule:nonzero;stroke:none"
         d="m 4175.44,4340.83 c 32.52,78.61 27.32,164.92 46.66,246.67 1.11,4.7 -6.12,6.7 -7.23,1.99 -19.33,-81.72 -14.18,-168.14 -46.67,-246.66 -1.84,-4.47 5.41,-6.4 7.24,-2"
         inkscape:connector-curvature="0" /><path
         id="path104"
         style="fill:#6dbdeb;fill-opacity:1;fill-rule:nonzero;stroke:none"
         d="m 4268.39,4323.27 c 26.98,62.89 23.87,131.81 17.18,198.56 -0.48,4.77 -7.98,4.81 -7.5,0 6.52,-65.13 10.22,-133.29 -16.16,-194.77 -1.88,-4.4 4.58,-8.23 6.48,-3.79"
         inkscape:connector-curvature="0" /><path
         id="path106"
         style="fill:#6dbdeb;fill-opacity:1;fill-rule:nonzero;stroke:none"
         d="m 4358.9,4325.16 c -2.32,65.73 5.92,131.01 6.67,196.67 0.06,4.84 -7.44,4.84 -7.5,0 -0.75,-65.66 -8.99,-130.94 -6.67,-196.67 0.17,-4.82 7.67,-4.84 7.5,0"
         inkscape:connector-curvature="0" /><path
         id="path108"
         style="fill:#6dbdeb;fill-opacity:1;fill-rule:nonzero;stroke:none"
         d="m 4418.9,4328.5 c 3.3,62.87 5.46,125.13 -3.46,187.66 -0.68,4.77 -7.91,2.73 -7.24,-1.99 8.83,-61.87 6.46,-123.5 3.2,-185.67 -0.25,-4.84 7.25,-4.81 7.5,0"
         inkscape:connector-curvature="0" /><path
         id="path110"
         style="fill:#6dbdeb;fill-opacity:1;fill-rule:nonzero;stroke:none"
         d="m 4492.24,4355.16 c 0,60 0,120 0,180 0,4.84 -7.5,4.84 -7.5,0 0,-60 0,-120 0,-180 0,-4.83 7.5,-4.83 7.5,0"
         inkscape:connector-curvature="0" /><path
         id="path112"
         style="fill:#6dbdeb;fill-opacity:1;fill-rule:nonzero;stroke:none"
         d="m 4548.91,4328.5 c 3.62,58.3 8.89,116.26 -0.14,174.33 -0.74,4.77 -7.97,2.73 -7.23,-2 8.92,-57.37 3.44,-114.76 -0.13,-172.33 -0.31,-4.84 7.19,-4.81 7.5,0"
         inkscape:connector-curvature="0" /><path
         id="path114"
         style="fill:#6dbdeb;fill-opacity:1;fill-rule:nonzero;stroke:none"
         d="m 4612.24,4338.5 c 0.45,51.19 5.85,102.26 0,153.33 -0.55,4.75 -8.05,4.8 -7.5,0 5.85,-51.07 0.45,-102.14 0,-153.33 -0.04,-4.84 7.46,-4.84 7.5,0"
         inkscape:connector-curvature="0" /><path
         id="path116"
         style="fill:#6dbdeb;fill-opacity:1;fill-rule:nonzero;stroke:none"
         d="m 4651.73,4296.6 c 26.18,50.47 20.88,106.84 20.51,161.9 -0.03,4.83 -7.53,4.83 -7.5,0 0.36,-53.48 6.01,-108.98 -19.5,-158.11 -2.21,-4.29 4.25,-8.08 6.49,-3.79"
         inkscape:connector-curvature="0" /></g></g><g
     id="g118"
     transform="matrix(0.13333333,0,0,-0.13333333,-101.58288,669.50435)"><g
       clip-path="url(#clipPath124)"
       id="g120"><path
         id="path126"
         style="fill:#6dbdeb;fill-opacity:1;fill-rule:nonzero;stroke:none"
         d="m 4884.48,4322.51 c 122.92,153.99 287.66,265.93 446.13,379.95 173.13,124.56 362.39,217.46 558.87,299.08 4.41,1.83 2.47,9.09 -1.99,7.24 -191.55,-79.59 -378.53,-169.05 -547.56,-290.38 -163.22,-117.16 -334.22,-232.06 -460.76,-390.59 -2.98,-3.74 2.29,-9.08 5.31,-5.3"
         inkscape:connector-curvature="0" /><path
         id="path128"
         style="fill:#6dbdeb;fill-opacity:1;fill-rule:nonzero;stroke:none"
         d="m 4938.77,4284.17 c 31.66,82.29 108.52,136.08 167.84,197.59 68.96,71.5 149.09,133.24 229.52,191.09 150.54,108.27 321.1,215.3 500.02,268.69 4.62,1.38 2.66,8.62 -1.99,7.24 -191.28,-57.09 -370.41,-173.49 -530.26,-290.06 -76.17,-55.54 -149.26,-116.36 -214.73,-184.24 -57.05,-59.16 -127.15,-109.07 -157.63,-188.32 -1.74,-4.52 5.51,-6.46 7.23,-1.99"
         inkscape:connector-curvature="0" /><path
         id="path130"
         style="fill:#6dbdeb;fill-opacity:1;fill-rule:nonzero;stroke:none"
         d="m 4988.77,4257.5 c 59.61,161.56 232.03,262.18 364.95,357.76 165.28,118.85 335.97,225.98 516.66,320 4.29,2.23 0.5,8.7 -3.79,6.47 -192.28,-100.05 -370.84,-216.4 -547.23,-341.86 -126.35,-89.86 -281.66,-188.18 -337.82,-340.38 -1.68,-4.54 5.57,-6.49 7.23,-1.99"
         inkscape:connector-curvature="0" /><path
         id="path132"
         style="fill:#6dbdeb;fill-opacity:1;fill-rule:nonzero;stroke:none"
         d="m 5038.4,4249.94 c 102.22,163.76 268.64,281.31 422,393.46 164.4,120.22 343.58,233.03 539.08,294.81 4.6,1.46 2.64,8.7 -1.99,7.24 -196.57,-62.13 -375.16,-175.48 -540.88,-295.57 -154.9,-112.26 -321.88,-231.46 -424.7,-396.15 -2.56,-4.12 3.93,-7.89 6.49,-3.79"
         inkscape:connector-curvature="0" /><path
         id="path134"
         style="fill:#6dbdeb;fill-opacity:1;fill-rule:nonzero;stroke:none"
         d="m 5095.07,4209.94 c 79.68,152.82 230.51,264.69 362.87,370.1 76.02,60.55 158.94,112.12 243.38,159.94 73.12,41.4 156.07,72.15 225.73,118.61 4,2.67 0.25,9.17 -3.79,6.48 -74.28,-49.54 -162.72,-82.95 -240.72,-127.11 -80.18,-45.39 -157.17,-96.06 -229.9,-152.61 -133.57,-103.84 -284.44,-218.92 -364.06,-371.62 -2.22,-4.29 4.25,-8.08 6.49,-3.79"
         inkscape:connector-curvature="0" /><path
         id="path136"
         style="fill:#6dbdeb;fill-opacity:1;fill-rule:nonzero;stroke:none"
         d="m 5155.07,4206.6 c 52.36,123.24 172.95,216.2 276.35,295.97 112.55,86.83 236.59,157.57 358.96,229.35 4.17,2.45 0.39,8.93 -3.79,6.48 -127.82,-74.98 -257.34,-148.98 -373.98,-240.95 -99.47,-78.41 -213.19,-167.42 -264.03,-287.06 -1.86,-4.4 4.59,-8.23 6.49,-3.79"
         inkscape:connector-curvature="0" /><path
         id="path138"
         style="fill:#6dbdeb;fill-opacity:1;fill-rule:nonzero;stroke:none"
         d="m 5212.1,4170.83 c 55.51,162.04 207.34,271.08 358.28,337.76 4.41,1.95 0.6,8.42 -3.79,6.48 -152.74,-67.49 -305.58,-178.37 -361.72,-342.24 -1.57,-4.59 5.68,-6.55 7.23,-2"
         inkscape:connector-curvature="0" /><path
         id="path140"
         style="fill:#6dbdeb;fill-opacity:1;fill-rule:nonzero;stroke:none"
         d="m 5251.73,4139.94 c 51.71,93.76 124.54,168.77 215.32,225.32 4.09,2.55 0.33,9.04 -3.79,6.47 -91.73,-57.14 -165.75,-133.25 -218.02,-228 -2.33,-4.24 4.14,-8.03 6.49,-3.79"
         inkscape:connector-curvature="0" /><path
         id="path142"
         style="fill:#6dbdeb;fill-opacity:1;fill-rule:nonzero;stroke:none"
         d="m 5295.07,4116.6 c 48.89,75.49 108.09,143.43 181.98,195.32 3.93,2.76 0.19,9.27 -3.79,6.48 -74.91,-52.62 -135.1,-121.48 -184.68,-198.01 -2.63,-4.07 3.86,-7.83 6.49,-3.79"
         inkscape:connector-curvature="0" /><path
         id="path144"
         style="fill:#6dbdeb;fill-opacity:1;fill-rule:nonzero;stroke:none"
         d="m 5345.07,4113.27 c 46.65,65.26 105.3,116.3 175.31,155.32 4.22,2.36 0.44,8.84 -3.79,6.48 -71.14,-39.66 -130.57,-91.67 -178.01,-158.01 -2.81,-3.95 3.7,-7.69 6.49,-3.79"
         inkscape:connector-curvature="0" /><path
         id="path146"
         style="fill:#6dbdeb;fill-opacity:1;fill-rule:nonzero;stroke:none"
         d="m 5405.07,4096.6 c 38.85,58.66 91.36,115.25 161.08,134.94 4.65,1.32 2.67,8.55 -1.99,7.24 -71.69,-20.26 -125.59,-78.03 -165.58,-138.39 -2.67,-4.05 3.82,-7.8 6.49,-3.79"
         inkscape:connector-curvature="0" /><path
         id="path148"
         style="fill:#6dbdeb;fill-opacity:1;fill-rule:nonzero;stroke:none"
         d="m 5471.14,4072.51 c 39.2,48.48 82.83,92.59 130,133.33 3.66,3.17 -1.67,8.45 -5.31,5.31 -47.16,-40.75 -90.79,-84.86 -130,-133.34 -3.01,-3.72 2.27,-9.06 5.31,-5.3"
         inkscape:connector-curvature="0" /><path
         id="path150"
         style="fill:#6dbdeb;fill-opacity:1;fill-rule:nonzero;stroke:none"
         d="m 5517.81,4019.18 c 46.24,56.59 88.97,117.52 152.57,156.08 4.13,2.5 0.36,8.99 -3.79,6.47 -64.16,-38.89 -107.41,-100.13 -154.09,-157.25 -3.03,-3.71 2.25,-9.05 5.31,-5.3"
         inkscape:connector-curvature="0" /><path
         id="path152"
         style="fill:#6dbdeb;fill-opacity:1;fill-rule:nonzero;stroke:none"
         d="m 5578.4,3999.94 c 40.78,54.45 81.51,110.15 138.65,148.65 3.99,2.69 0.24,9.19 -3.79,6.48 -58.22,-39.23 -99.76,-95.84 -141.35,-151.34 -2.9,-3.88 3.62,-7.61 6.49,-3.79"
         inkscape:connector-curvature="0" /><path
         id="path154"
         style="fill:#6dbdeb;fill-opacity:1;fill-rule:nonzero;stroke:none"
         d="m 5625.07,3993.27 c 40.18,56.07 87.11,106.69 141.98,148.65 3.78,2.9 0.06,9.42 -3.79,6.48 -55.94,-42.78 -103.7,-94.19 -144.68,-151.34 -2.82,-3.94 3.7,-7.69 6.49,-3.79"
         inkscape:connector-curvature="0" /><path
         id="path156"
         style="fill:#6dbdeb;fill-opacity:1;fill-rule:nonzero;stroke:none"
         d="m 5681.73,3989.94 c 30.61,41.04 59.68,83.14 86.67,126.66 2.55,4.13 -3.94,7.89 -6.49,3.79 -26.98,-43.52 -56.04,-85.62 -86.67,-126.66 -2.89,-3.89 3.63,-7.62 6.49,-3.79"
         inkscape:connector-curvature="0" /><path
         id="path158"
         style="fill:#6dbdeb;fill-opacity:1;fill-rule:nonzero;stroke:none"
         d="m 5727.81,3942.51 c 35.14,42.81 65.78,89.16 84.29,141.66 1.61,4.57 -5.64,6.52 -7.23,1.99 -18.07,-51.26 -48.06,-96.56 -82.37,-138.35 -3.04,-3.7 2.24,-9.04 5.31,-5.3"
         inkscape:connector-curvature="0" /><path
         id="path160"
         style="fill:#6dbdeb;fill-opacity:1;fill-rule:nonzero;stroke:none"
         d="m 5771.73,3929.94 c 35.9,50.82 68.34,104.55 87.04,164.23 1.45,4.62 -5.79,6.59 -7.23,1.99 -18.51,-59.07 -50.78,-112.17 -86.3,-162.43 -2.79,-3.96 3.72,-7.71 6.49,-3.79"
         inkscape:connector-curvature="0" /><path
         id="path162"
         style="fill:#6dbdeb;fill-opacity:1;fill-rule:nonzero;stroke:none"
         d="m 5815.07,3913.27 c 30.17,47.52 56.83,97.03 83.33,146.67 2.27,4.26 -4.2,8.05 -6.49,3.79 -26.48,-49.65 -53.14,-99.15 -83.33,-146.67 -2.59,-4.1 3.9,-7.86 6.49,-3.79"
         inkscape:connector-curvature="0" /><path
         id="path164"
         style="fill:#6dbdeb;fill-opacity:1;fill-rule:nonzero;stroke:none"
         d="m 5868.4,3903.27 c 32.84,56.23 62.96,113.67 87.04,174.23 1.8,4.5 -5.47,6.43 -7.23,1.99 -23.85,-59.97 -53.78,-116.76 -86.3,-172.43 -2.44,-4.19 4.05,-7.96 6.49,-3.79"
         inkscape:connector-curvature="0" /></g></g><path
     id="path166"
     style="fill:#100f0d;fill-opacity:1;fill-rule:nonzero;stroke:none;stroke-width:0.13333333"
     d="m 57.739783,219.41903 c -1.36266,-1.16267 -4.12533,-3.89467 -5.616,-4.91467 -1.684,-1.152 -4.38,-1.48 -6.31733,-2.10667 -4.39867,-1.42 -10.08533,0.0253 -14.57373,0.52267 -5.05774,0.56133 -10.07654,1.09467 -15.12494,1.58667 -3.39946,0.33333 -6.8103995,1.09333 -9.7843995,2.93733 -2.88853,1.79333 -5.28386,4.84667 -6.10626001,8.29067 -0.44587,1.86666 -0.217199999542,4.32266 0.79893001,6.01466 1.4292,2.38267 2.1984,-0.11333 3.1932,-1.584 7.7515995,-11.444 25.2078695,-12.38266 37.5531995,-10.17733 3.86667,0.69067 7.83333,1.68533 11.76533,1.71067"
     inkscape:connector-curvature="0" /><path
     id="path168"
     style="fill:#16171d;fill-opacity:1;fill-rule:nonzero;stroke:none;stroke-width:0.13333333"
     d="m 805.7491,192.2817 c 6.516,-10.068 20.72933,-26.05867 29.61333,-33.75867 14.80533,-13.02933 30.204,-26.05867 45.60133,-37.904 21.32136,-17.17467 43.23596,-34.941327 66.33336,-49.155997 13.62,-8.292 58.03858,-29.612 71.66128,-26.65066 -11.2533,6.51466 -29.61328,22.50533 -40.86528,31.98133 -12.436,10.66 -20.136,20.136 -26.6507,34.942657 -10.0693,26.05734 -35.5347,47.37867 -40.2747,74.62134 -3.5533,21.32133 5.332,48.56533 13.032,68.11066 9.4747,24.87467 24.2814,50.932 42.6414,71.06933 11.252,11.25067 21.9133,20.72667 35.53328,27.24267 7.7,4.14266 23.0973,13.02933 31.3893,15.98933 -11.844,4.14667 -36.12658,-1.184 -47.97198,-4.14533 -14.2133,-2.96134 -27.2426,-10.65867 -39.68,-17.76534 -23.0973,-13.03199 -47.97196,-30.20666 -68.10796,-47.38133 -10.068,-8.29066 -20.728,-15.992 -30.79733,-24.28266 -15.99067,-11.844 -41.45467,-36.12934 -53.892,-51.52534"
     inkscape:connector-curvature="0" /><path
     id="path170"
     style="fill:#191d27;fill-opacity:1;fill-rule:nonzero;stroke:none;stroke-width:0.13333333"
     d="m 690.25977,152.00836 c 8.884,-6.21866 17.768,-3.55333 17.768,8.884"
     inkscape:connector-curvature="0" /><path
     id="path172"
     style="fill:#191d27;fill-opacity:1;fill-rule:nonzero;stroke:none;stroke-width:0.13333333"
     d="m 708.9451,159.8417 c 12.43733,-8.884 22.82533,5.58666 29.932,14.47066"
     inkscape:connector-curvature="0" /><path
     id="path174"
     style="fill:#191d27;fill-opacity:1;fill-rule:nonzero;stroke:none;stroke-width:0.13333333"
     d="m 732.13843,176.49236 c 0.888,-1.776 10.53467,-9.38133 12.31067,-12.04666 5.33067,4.44133 7.996,10.66 10.66267,17.768"
     inkscape:connector-curvature="0" /><path
     id="path176"
     style="fill:#191d27;fill-opacity:1;fill-rule:nonzero;stroke:none;stroke-width:0.13333333"
     d="m 755.70243,180.43636 c 3.55334,-2.66533 7.10667,-5.33066 11.54933,-6.21866 3.55334,5.33066 9.50267,14.78533 13.056,20.116"
     inkscape:connector-curvature="0" /><path
     id="path178"
     style="fill:#191d27;fill-opacity:1;fill-rule:nonzero;stroke:none;stroke-width:0.13333333"
     d="m 772.9731,194.13503 c 1.77733,-2.66533 10.61733,-10.51333 13.28266,-12.29067 4.44134,5.33067 8.884,10.66 13.32534,15.992"
     inkscape:connector-curvature="0" /><path
     id="path180"
     style="fill:#142a3b;fill-opacity:1;fill-rule:nonzero;stroke:none;stroke-width:0.13333333"
     d="m 874.9451,233.56036 c 3.336,-15.19733 4.6,-33.80933 -8.596,-44.672 -5.26667,-4.33733 -10.77467,-8.528 -16.58534,-12.11066 -5.72533,-3.52934 -11.73866,-0.38267 -17.10266,2.52933 -10.33334,5.604 -18.13334,10.492 -30.35067,11.29867 -12.696,0.83866 -25.412,-2.93334 -37.21733,-7.18667 -23.072,-8.31467 -45.61067,-19.704 -67.97733,-29.77333 C 650.3611,132.59636 604.4891,108.99236 554.8291,95.357703 c -25.09333,-6.88934 -50.29733,-9.95067 -76.28133,-9.7 -13.544,0.13066 -26.868,-0.052 -40.34266,-1.528 -13.94267,-1.52667 -27.612,-4.68 -41.628,-5.66134 -22.32934,-1.56533 -45.448,-0.53333 -67.79867,0.38134 -21.61866,0.884 -42.73866,4.012 -63.97066,7.992 -40.312,7.56 -80.36133,16.969327 -119.264,30.047997 -17.888,6.01333 -35.44267,13.02933 -52.495997,21.11333 -19.40266,9.196 -36.21466,22.656 -56.37733,30.3 -6.2788,2.38 -27.8454695,12.176 -19.81947,22.10133 4.13334,5.11067 11.55107,7.32134 17.03814,10.65067 8.5,5.15333 14.852,12.772 21.07866,20.35333 0.392,-1.48267 0.78267,-2.968 1.176,-4.45467 -15.99333,3.16934 -44.24386,-8.31733 -54.1162595,10.86667 -6.006269,11.668 16.0322595,21.36533 23.1483995,24.84533 22.19186,10.86 45.97586,17.72934 67.48653,30.05734 10.425327,5.97466 20.615997,12.29733 31.399997,17.62533 11.70933,5.776 24.36666,9.78133 36.62533,14.208 50.52533,18.25333 102.37466,33.344 156.03333,38.41733 27.07467,2.55733 54.40533,1.536 81.55733,1.09867 25.312,-0.40667 50.71867,-1.35734 75.83067,-4.76267 33.37199,-4.52933 63.95599,-14.26933 94.87999,-27.308 33.756,-14.232 68.056,-27.148 102.49067,-39.636 17.14133,-6.216 34.33466,-12.29333 51.53333,-18.356 17.376,-6.12533 34.26533,-13.15333 52.736,-15.02133 16,-1.61733 32.072,-1.13733 48.03333,-3.39067 16.36,-2.312 32.50667,-5.71333 48.412,-10.17866 3.30667,-0.92534 1.90133,-6.06934 -1.416,-5.13867 -26.024,7.304 -52.26267,11.39867 -79.25733,12.452 -11.81867,0.46 -23.50534,1.304 -35.02533,4.10667 -14,3.408 -27.74934,9.50666 -41.33467,14.30133 -53.06,18.716 -105.968,37.91067 -157.724,60.02 -50.81466,21.70533 -104.44799,26.604 -159.15866,27.58133 -27.184,0.48933 -54.44266,1.244 -81.55733,-1.09867 -27.89333,-2.41466 -55.43067,-8.068 -82.464,-15.21733 -26.56,-7.02 -52.608,-15.89066 -78.41333,-25.27866 -13.64,-4.96 -27.00667,-9.976 -39.76,-16.976 -11.496,-6.30534 -22.449327,-13.57867 -34.243997,-19.33867 -21.264,-10.38267 -44.48266,-16.44267 -64.9024,-28.62133 -3.6224,-2.16134 -7.2077295,-4.712 -9.5770595,-8.26267 -5.04214,-7.55467 12.3119995,-11.764 16.5797295,-12.20133 11.28507,-1.15867 22.30907,2.58933 33.62107,0.34666 2.14666,-0.424 2.336,-3.04133 1.176,-4.45333 -6.04267,-7.35867 -12.16934,-14.192 -19.95467,-19.744 -4.11867,-2.936 -8.72213,-5.10266 -13.1908,-7.43733 -9.10627,-4.75333 0.65613,-11.51333 6.24413,-14.38533 9.45067,-4.85467 19.416,-7.76 28.70267,-13.14267 11.79867,-6.83733 22.88667,-14.37333 35.19867,-20.32533 45.539987,-22.01734 95.323987,-35.03734 144.621317,-45.474667 25.86667,-5.476 51.85867,-10.544 78.268,-12.39467 27.628,-1.936 56.81733,-2.984 84.412,-0.41066 12.89733,1.204 25.59733,4.08666 38.47733,5.49733 14.568,1.59467 29.13867,1.19333 43.764,1.11467 27.32533,-0.14934 53.96267,5.12133 80.03733,12.990657 65.092,19.64667 125.22533,54.07467 187.724,80.37467 25.696,10.81333 53.05733,17.74533 78.14,2.1 5.152,-3.21333 11.23466,-7.89467 17.12666,-4.26133 5.01334,3.08933 9.696,6.82533 14.27334,10.51466 11.74666,9.464 10.13866,26.21733 7.22533,39.484 -0.736,3.352 4.40133,4.77467 5.13867,1.42"
     inkscape:connector-curvature="0" /><path
     id="path182"
     style="fill:#5989a6;fill-opacity:1;fill-rule:nonzero;stroke:none;stroke-width:0.13333333"
     d="m 144.80111,186.65503 c 22.20934,2.66533 36.42267,8.884 55.96667,18.656 17.768,7.99466 33.75866,17.76666 53.30266,19.54266 16.87867,0.88934 33.75867,1.77734 51.52534,0 41.75333,-4.44133 84.39466,-6.21733 127.03733,-0.888 56.85466,7.10667 117.26399,15.10267 174.11999,6.21867 46.19467,-7.99467 90.61333,-14.21333 137.696,-16.87867 25.764,-1.77733 51.52666,-1.77733 78.17733,-5.33066 11.35867,-1.41867 34.61733,-7.93333 49.85467,-5.96667 -1.03334,-2.98266 -2.496,-5.78533 -4.54667,-8.24666 -1.40667,-1.40534 -6.516,-5.52534 -11.556,-9.23734 -12.36933,3.93867 -24.41333,9.17334 -37.30533,11.01467 -17.76667,2.664 -36.42267,5.32933 -54.18933,3.55333 -34.648,-2.66533 -70.18134,-19.544 -101.27467,-31.98133 -74.62266,-31.98133 -149.24666,-36.424 -229.19999,-40.86533 -41.75334,-2.66534 -85.28267,0.888 -127.92533,4.44133 -37.312,3.55333 -74.62267,9.772 -111.93467,16.87867 -31.092,7.108 -64.85066,0.88933 -95.054657,11.54933 -15.10267,6.21867 -26.652,13.32533 -43.53067,16.88 -10.332,2.42933 -25.6472,6.112 -37.42426,12.17467 1.69786,3.336 8.012,5.46133 14.32693,9.14533 1.79467,1.04667 3.42667,2.09467 4.95733,3.15733 18.92667,-5.23466 38.51467,-15.236 57.228,-16.48266 15.102667,-0.888 34.646667,0.888 49.749327,2.66533"
     inkscape:connector-curvature="0" /><path
     id="path184"
     style="fill:#191d27;fill-opacity:1;fill-rule:nonzero;stroke:none;stroke-width:0.13333333"
     d="m 99.494453,159.11503 c 30.203997,-10.66 63.962657,-4.44133 95.054657,-11.54933 37.312,-7.10667 74.62267,-13.32534 111.93467,-16.87867 42.64266,-3.55333 86.17199,-7.10667 127.92533,-4.44133 79.95333,4.44133 154.57733,8.884 229.19999,40.86533 31.09333,12.43733 66.62667,29.316 101.27467,31.98133 17.76666,1.776 36.42266,-0.88933 54.18933,-3.55333 12.892,-1.84133 24.936,-7.076 37.30533,-11.01467 -4.51467,-3.33066 -8.97467,-6.33333 -10.65467,-6.75333 -7.10666,-0.888 -18.656,8.884 -24.87333,11.54933 -32.86933,13.32534 -70.18266,-9.772 -99.49733,-22.20933 C 651.17043,137.7937 581.87977,96.040363 505.47844,88.933703 c -9.69067,-0.80667 -19.38133,-0.69734 -29.072,-0.58667 -11.63067,0.132 -23.26133,0.264 -34.89067,-1.18933 -17.76666,-1.77734 -33.75733,-6.21867 -51.52533,-6.21867 -34.64666,0 -67.516,-0.888 -102.16133,4.44133 -66.62933,11.54934 -145.69333,29.317337 -206.102657,61.297337 -10.66,6.21866 -20.432,13.32666 -31.092,18.656 -7.996,4.44266 -21.32147,7.10666 -27.54027,13.32533 -4.70733,4.34667 -5.72346,7.21467 -4.55466,9.51067 11.77706,-6.06267 27.09226,-9.74534 37.42426,-12.17467 16.87867,-3.55467 28.428,-10.66133 43.53067,-16.88"
     inkscape:connector-curvature="0" /><path
     id="path186"
     style="fill:#848e98;fill-opacity:1;fill-rule:nonzero;stroke:none;stroke-width:0.13333333"
     d="m 765.77176,227.51903 c -53.30266,8.884 -108.38266,6.21866 -157.24132,32.87066 -70.18267,38.2 -139.47467,94.16667 -223.86933,84.396 -18.656,-1.77867 -36.424,-5.33067 -55.07867,-5.33067 -15.992,0 -32.87066,1.776 -48.86133,-0.888 -39.088,-6.21866 -77.288,-23.09866 -115.488,-35.53599 -31.98133,-10.66 -57.744,-28.428 -88.837327,-40.86534 -14.21333,-6.21866 -29.316,-8.88266 -43.52933,-15.10266 -12.36867,-5.152 -20.25093,-11.51067 -27.8118695,-19.22934 -6.728129,10.264 18.0625395,20.95734 29.5878695,26.33734 15.992,7.10666 32.87067,12.43733 48.86,20.432 18.657327,9.77066 35.535997,22.208 55.967997,29.316 71.06933,26.65066 141.25066,48.86133 216.76266,47.97333 71.06933,-0.89067 136.808,0.888 202.54799,-28.42933 62.18534,-26.652 126.14933,-48.86 189.22267,-71.068 20.43333,-7.99734 40.86533,-6.22 63.07466,-7.99734 19.54267,-1.776 41.75333,-6.21866 60.40933,-11.548 h 0.888 c 0.53734,-2.33333 1.03334,-4.892 1.41867,-7.564 -33.452,-3.91333 -75.82667,-3.4 -108.02267,2.23334"
     inkscape:connector-curvature="0" /><path
     id="path188"
     style="fill:#a4cbe0;fill-opacity:1;fill-rule:nonzero;stroke:none;stroke-width:0.13333333"
     d="m 32.866453,247.06303 c 14.21333,6.22 29.316,8.884 43.52933,15.10266 31.093327,12.43734 56.855997,30.20534 88.837327,40.86534 38.2,12.43733 76.4,29.31733 115.488,35.53599 15.99067,2.664 32.86933,0.888 48.86133,0.888 18.65467,0 36.42267,3.552 55.07867,5.33067 84.39466,9.77067 153.68666,-46.196 223.86933,-84.396 48.85866,-26.652 103.93866,-23.98666 157.24132,-32.87066 32.196,-5.63334 74.57067,-6.14667 108.02267,-2.23334 1.084,-7.50133 1.22933,-15.95466 -1.31333,-23.27733 -15.23734,-1.96666 -38.496,4.548 -49.85467,5.96667 -26.65067,3.55333 -52.41333,3.55333 -78.17733,5.33066 -47.08267,2.66534 -91.50133,8.884 -137.696,16.87867 -56.856,8.884 -117.26533,0.888 -174.11999,-6.21867 -42.64267,-5.32933 -85.284,-3.55333 -127.03733,0.888 -17.76667,1.77734 -34.64667,0.88934 -51.52534,0 -19.544,-1.776 -35.53466,-11.548 -53.30266,-19.54266 -19.544,-9.772 -33.75733,-15.99067 -55.96667,-18.656 -15.10266,-1.77733 -34.64666,-3.55333 -49.749327,-2.66533 -18.71333,1.24666 -38.30133,11.248 -57.228,16.48266 7.56134,5.25733 12.37867,10.924 19.028,19.052 -5.852,1.46267 -12.308,0.81733 -18.86933,0.172 -9.3732,-0.92267 -18.96427,-1.844 -27.3252,3.38133 -2.7598695,1.56 -4.5531995,3.152 -5.6026695,4.75467 7.5609395,7.72 15.4431995,14.07867 27.8118695,19.23067"
     inkscape:connector-curvature="0" /><path
     id="path190"
     style="fill:#dbf3f7;fill-opacity:1;fill-rule:nonzero;stroke:none;stroke-width:0.13333333"
     d="m 60.437123,199.03503 c 53.333327,-8.88933 99.555987,5.33333 149.333327,24 47.99999,18.66666 102.22266,12.444 151.99999,15.11066 24.88933,0.88934 49.77733,2.66667 74.66667,3.556 24.88933,0.88934 48,6.22267 71.99999,7.11067 17.77867,0.88933 36.44534,0.88933 54.22267,3.556 11.556,0.888 13.33333,2.66667 3.556,14.22133 -8.88933,9.77867 -23.112,16 -34.66667,20.44534 -48.00133,18.66666 -91.55599,29.33333 -141.33466,39.10933 -51.55466,8.89067 -97.77733,-3.55467 -149.33333,-9.776 -20.444,-2.66667 -39.11066,-12.44533 -56,-22.224 -20.444,-11.55467 -38.22133,-19.55467 -59.55466,-26.66667 -16,-4.44266 -31.111997,-11.55466 -46.222667,-15.10933 -10.66666,-2.66667 -47.11066,-5.33333 -49.77786,-18.66667 -0.88854,0 -0.88854,-0.88933 -1.77814,-0.88933 8,-11.55467 31.112,0.88933 41.77867,-9.77733 8.888,-9.77734 1.77733,-20.444 -9.77867,-23.11067"
     inkscape:connector-curvature="0" /><path
     id="path192"
     style="fill:#385f66;fill-opacity:1;fill-rule:nonzero;stroke:none;stroke-width:0.13333333"
     d="m 384.22377,273.27503 c 3.10934,-4.44 11.10534,-3.552 15.54667,-4.88534 -4.88667,-3.552 -10.216,-5.33066 -15.10267,-8.44 2.22134,-0.888 3.99867,-1.33066 6.66267,-0.888 -30.31333,-14.74533 -78.36933,-16.26666 -113.188,-12.23333 l 0.22667,9.41067 c 27.152,0.948 67.85333,1.068 89.864,16.148 -3.55333,0.44533 -7.55067,0.44533 -11.10533,2.22133 1.77733,2.22133 4.44266,3.99733 5.77466,6.664 -2.22,1.33067 -6.66266,1.33067 -8.43866,3.10933 -5.33067,4.88534 -0.444,4.44 1.332,8.88267 0.0733,0.19067 0.13866,0.352 0.20666,0.52933 5.04,-3.39066 10.088,-6.54133 15.784,-7.636 5.74533,-0.95866 10.97333,-1.796 16.17333,-2.91333 3.332,-1.24 7.348,-1.904 9.14534,-2.41733 -3.55334,-3.99734 -8.43867,-5.33067 -12.88134,-7.552"
     inkscape:connector-curvature="0" /><path
     id="path194"
     style="fill:#71929b;fill-opacity:1;fill-rule:nonzero;stroke:none;stroke-width:0.13333333"
     d="m 354.46378,284.38169 c 1.776,-1.77866 6.21866,-1.77866 8.43866,-3.10933 -1.332,-2.66667 -3.99733,-4.44267 -5.77466,-6.664 3.55466,-1.776 7.552,-1.776 11.10533,-2.22133 -22.01067,-15.08 -62.712,-15.2 -89.864,-16.148 l 0.58267,24.14533 c 9.328,23.54133 39.532,30.648 60.85333,22.65067 5.852,-2.02267 11.02133,-5.76 16.19733,-9.24134 -0.068,-0.17733 -0.13333,-0.33866 -0.20666,-0.52933 -1.776,-4.44267 -6.66267,-3.99733 -1.332,-8.88267"
     inkscape:connector-curvature="0" /><path
     id="path196"
     style="fill:#223b38;fill-opacity:1;fill-rule:nonzero;stroke:none;stroke-width:0.13333333"
     d="m 465.50911,254.17636 c -14.21334,-3.99867 -20.432,-5.33067 -35.09067,-8.884 -27.98267,-6.21867 -59.52,-10.216 -88.392,-11.99333 -23.09866,-1.332 -42.64133,1.77733 -63.96266,10.216 l 0.0787,3.31333 c 34.81867,-4.03333 82.87467,-2.512 113.188,12.23333 -2.664,-0.44266 -4.44133,0 -6.66267,0.888 4.88667,3.10934 10.216,4.888 15.10267,8.44 -4.44133,1.33334 -12.43733,0.44534 -15.54667,4.88534 4.44267,2.22133 9.328,3.55466 12.88134,7.552 -1.79734,0.51333 -5.81334,1.17733 -9.14534,2.41733 4.44934,-0.95333 8.876,-2.10933 13.58667,-3.75067 18.212,-6.66133 35.536,-6.21866 54.19067,-6.66133 17.32266,-0.44533 35.09066,-0.888 51.97066,3.10933 -7.552,-7.10666 -29.31733,-18.656 -42.19866,-21.76533"
     inkscape:connector-curvature="0" /><path
     id="path198"
     style="fill:#182d49;fill-opacity:1;fill-rule:nonzero;stroke:none;stroke-width:0.13333333"
     d="m 277.18644,280.74969 c 6.06134,14.33334 19.204,22.63467 34.17734,25.30934 7.02933,1.25466 14.276,0.86666 21.228,-0.62267 9.92,-2.12667 17.75066,-8.224 26.12133,-13.568 10.32266,-6.59067 23.13733,-6.616 34.74133,-9.648 12.63333,-3.29867 23.992,-7.08533 37.18933,-8.044 24.61067,-1.78933 51.41067,-3.05733 75.59733,2.35867 0.46134,0.10533 0.87734,-0.48134 0.48667,-0.836 -10.83333,-9.77067 -25.71866,-16.736 -39.53066,-21.10134 -19.12667,-6.04266 -39.21867,-10.31733 -58.94,-13.81866 -43.53333,-7.72667 -89.44533,-14.01334 -131.66,2.36666 -0.59467,0.23067 -0.336,1.19734 0.26533,0.964 19.008,-7.37466 38.53734,-10.89733 58.93334,-10.416 20.89333,0.49334 41.98799,3.27334 62.61466,6.46134 18.036,2.788 35.804,6.79866 53.476,11.32533 15.968,4.08933 30.7,9.46667 44.82133,18.12533 2.95067,1.81067 5.796,3.8 8.45067,6.024 -2.42,-2.02666 -7.844,-1.81866 -10.97467,-2.23733 -10.692,-1.42667 -21.572,-1.32267 -32.332,-1.12533 -19.10666,0.34933 -38.51733,-0.0747 -57.04,5.276 -9.15866,2.64666 -17.92133,5.39333 -27.35066,7.04666 -9.86534,1.732 -16.67867,4.57867 -24.98667,10.19867 -14.52266,9.82 -30.09333,13.57733 -47.232,8.86133 -12.18933,-3.35333 -22.26266,-11.74933 -27.192,-23.40533 -0.25066,-0.59467 -1.112,-0.084 -0.864,0.50533"
     inkscape:connector-curvature="0" /><path
     id="path200"
     style="fill:#301415;fill-opacity:1;fill-rule:nonzero;stroke:none;stroke-width:0.13333333"
     d="m 138.66645,180.23636 c 0,10.852 -10.74267,19.64667 -23.99334,19.64667 -13.24933,0 -23.990657,-8.79467 -23.990657,-19.64667 0,-10.84933 10.741327,-19.64533 23.990657,-19.64533 13.25067,0 23.99334,8.796 23.99334,19.64533"
     inkscape:connector-curvature="0" /><path
     id="path202"
     style="fill:#ffffff;fill-opacity:1;fill-rule:nonzero;stroke:none;stroke-width:0.13333333"
     d="m 137.45578,180.23636 c 0,10.304 -10.2,18.65734 -22.78267,18.65734 -12.58,0 -22.779987,-8.35334 -22.779987,-18.65734 0,-10.30133 10.199987,-18.65333 22.779987,-18.65333 12.58267,0 22.78267,8.352 22.78267,18.65333"
     inkscape:connector-curvature="0" /><path
     id="path204"
     style="fill:#fab40a;fill-opacity:1;fill-rule:nonzero;stroke:none;stroke-width:0.13333333"
     d="m 131.86511,180.23636 c 0,7.776 -7.696,14.07867 -17.192,14.07867 -9.49333,0 -17.190657,-6.30267 -17.190657,-14.07867 0,-7.77333 7.697327,-14.076 17.190657,-14.076 9.496,0 17.192,6.30267 17.192,14.076"
     inkscape:connector-curvature="0" /><path
     id="path206"
     style="fill:#2f1415;fill-opacity:1;fill-rule:nonzero;stroke:none;stroke-width:0.13333333"
     d="m 130.05311,180.23636 c 0,6.956 -6.88533,12.59467 -15.38,12.59467 -8.492,0 -15.377327,-5.63867 -15.377327,-12.59467 0,-6.95466 6.885327,-12.59333 15.377327,-12.59333 8.49467,0 15.38,5.63867 15.38,12.59333"
     inkscape:connector-curvature="0" /><path
     id="path208"
     style="fill:#ffffff;fill-opacity:1;fill-rule:nonzero;stroke:none;stroke-width:0.13333333"
     d="m 110.67578,177.63103 c 0,2.016 -1.63467,3.65067 -3.65067,3.65067 -2.01733,0 -3.652,-1.63467 -3.652,-3.65067 0,-2.01867 1.63467,-3.65333 3.652,-3.65333 2.016,0 3.65067,1.63466 3.65067,3.65333"
     inkscape:connector-curvature="0" /><path
     id="path210"
     style="fill:#ffffff;fill-opacity:1;fill-rule:nonzero;stroke:none;stroke-width:0.13333333"
     d="m 118.84778,182.84436 c 0,1.344 -1.09067,2.43467 -2.43333,2.43467 -1.34534,0 -2.43467,-1.09067 -2.43467,-2.43467 0,-1.344 1.08933,-2.43466 2.43467,-2.43466 1.34266,0 2.43333,1.09066 2.43333,2.43466"
     inkscape:connector-curvature="0" /><path
     id="path212"
     style="fill:#131e2c;fill-opacity:1;fill-rule:nonzero;stroke:none;stroke-width:0.13333333"
     d="m 26.481123,195.55903 c 13.11466,-1.77867 25.70533,-1.55867 38.72133,0.93867 11.984,2.29733 27.40133,5.37333 22.828,21.34799 -1.296,4.524 -4.19733,8.78934 -6.644,12.76134 -4.856,7.87866 -11.476,9.824 -18.80267,3.18933 -3.46266,-3.13467 -5.81066,-7.73733 -9.824,-10.268 -4.09866,-2.584 -8.71733,-4.12533 -12.868,-6.60933 -1.10933,-0.664 -2.11466,1.06533 -1.00933,1.72666 6.672,3.992 12.96133,5.95467 18.22933,12.06134 3.324,3.85333 7.65467,9.168 13.24934,9.52266 10.4,0.66267 16.70266,-13.81466 19.59733,-21.85066 4.69067,-13.024 -5.528,-19.776 -16.79333,-22.36933 -15.75734,-3.624 -31.184,-4.55334 -47.21574,-2.38134 -1.27346,0.17334 -0.7292,2.1 0.53174,1.93067"
     inkscape:connector-curvature="0" /><path
     id="path214"
     style="fill:#131e2c;fill-opacity:1;fill-rule:nonzero;stroke:none;stroke-width:0.13333333"
     d="m 82.583783,229.52569 c 1.688,6.068 6.08667,10.74667 11.24,14.15867 1.07867,0.71467 2.07867,-1.01733 1.00934,-1.72667 -4.71734,-3.12266 -8.77467,-7.404 -10.32,-12.96266 -0.34534,-1.24134 -2.27467,-0.71334 -1.92934,0.53066"
     inkscape:connector-curvature="0" /><path
     id="path216"
     style="fill:#14253b;fill-opacity:1;fill-rule:nonzero;stroke:none;stroke-width:0.13333333"
     d="m 179.90778,158.28836 c 9.46667,3.51867 16.74667,11.39334 25.38267,16.484 9.36933,5.52134 17.31066,10.98267 20.368,22.00667 2.89333,10.44 2.504,21.756 1.62933,32.448 -0.796,9.72133 -1.484,20.92266 -6.22133,29.66266 -8.11734,14.97467 -28.37067,18.16134 -43.69734,18.42934 -11.08533,0.196 -22.048,-0.116 -33.132,0.72933 -11.22666,0.86 -22.396,2.42267 -33.524,4.104 -0.636,0.0973 -0.364,1.06 0.26534,0.964 14.468,-2.18533 28.96533,-3.99733 43.58533,-4.71867 4.568,-0.22533 9.14,-0.18533 13.708,-0.144 6.76933,0.0613 13.53467,0.12267 20.27867,-0.684 14.74533,-1.76266 29.54666,-8.09733 35.464,-22.59866 3.66,-8.97334 3.95466,-20.62134 4.60533,-30.188 0.696,-10.232 0.86133,-22.62 -3.23733,-32.27467 -3.56,-8.39066 -10.364,-13.13466 -17.97067,-17.65066 -9.168,-5.44134 -17.19467,-13.8 -27.23867,-17.53467 -0.60533,-0.224 -0.864,0.74267 -0.26533,0.96533"
     inkscape:connector-curvature="0" /><path
     id="path218"
     style="fill:#14253b;fill-opacity:1;fill-rule:nonzero;stroke:none;stroke-width:0.13333333"
     d="m 205.28911,138.46836 c 19.67334,5.04134 40.69733,20.44934 51.424,37.74934 11.104,17.90666 11.89733,42.97866 5.12133,62.39733 -13.67733,39.19333 -54.42133,79.468 -99.04933,71.70133 -0.63066,-0.10933 -0.9,0.85467 -0.26533,0.964 46.00667,8.00533 85.34133,-32.94533 100.27866,-72.4 7.31734,-19.33067 5.33067,-43.21466 -4.248,-61.464 -5.26533,-10.02933 -14.34933,-17.552 -23.14,-24.384 -8.90799,-6.92266 -18.87333,-12.71466 -29.85599,-15.528 -0.62534,-0.16133 -0.88934,0.804 -0.26534,0.964"
     inkscape:connector-curvature="0" /><path
     id="path220"
     style="fill:#dbf3f7;fill-opacity:1;fill-rule:nonzero;stroke:none;stroke-width:0.13333333"
     d="m 273.77178,281.70169 c 4.33733,-0.30666 8.07066,1.016 12.33066,0.756 -0.79733,-1.30533 -1.68533,-3.95066 -2.43866,-4.57066 3.21466,1.31733 6.23866,2.51066 9.54933,2.768 -0.97467,-3.34534 -4.44667,-5.948 -7.10267,-8.42134 3.55067,3.01067 7.94667,5.01067 12.436,5.804 -1.17333,-4.29333 -5.96266,-7.632 -9.34933,-10.66666 2.88133,1.84133 6.05333,2.88533 9.372,2.6 -1.92667,-2.13867 -3.984,-4.672 -5.81867,-6.99734 1.86,0.34267 4.052,-0.396 5.796,-0.092 -0.97333,-1.31733 -1.18933,-2.74666 -3.10933,-4.07066 0.412,-0.74934 1.564,-0.97334 1.35333,-1.94934 -1.76533,-2.19866 -4.24933,-4.12 -6.952,-5.02933 -0.53466,-0.028 1.704,1.248 1.58267,1.096 -1.50267,-1.73333 -2.308,-2.83467 -5.07333,-3.94267 -0.13734,0.524 0.0573,0.72134 0.58133,0.588 -3.35467,-3.50666 -7.90533,-8.06133 -12.99733,-9.56 0.83466,2.292 0.34266,5.11334 0.59466,7.58 -0.88133,-0.0493 -2.448,-0.296 -3.28666,-0.42 0.168,1.22534 -0.22934,2.91867 -0.26934,4.172 -1.47866,-0.256 -3.61866,0.576 -5.08533,0.268 0.53467,3.076 2.44,6.044 4.23867,8.62267 -1.06534,-0.27067 -2.38534,-0.41467 -3.32534,-0.644 0.0187,4.488 3.80267,7.776 6.01334,11.33333 -10.076,-2.924 -7.316,10.37867 -2.596,9"
     inkscape:connector-curvature="0" /><path
     id="path222"
     style="fill:#6ba1b5;fill-opacity:1;fill-rule:nonzero;stroke:none;stroke-width:0.13333333"
     d="m 528.62777,220.05636 c -37.46266,0 -76.24133,-4.392 -111.74533,-8.12933 -45.75733,-3.89467 -101.468,-0.68 -150.52,-10.08133 -1.26533,-8.61867 -3.908,-16.992 -7.812,-24.42934 -5.26533,-10.02933 -14.34933,-17.552 -23.14,-24.384 -0.744,-0.57866 -1.49466,-1.148 -2.25333,-1.70933 31.71867,-7.652 62.03067,-13.07067 99.72533,-14.06267 2.976,-0.10266 5.94667,-0.15066 8.92267,-0.15066 35.69866,0 71.48933,6.81733 108.41066,6.81733 8,0 16.064,-0.0667 24.16667,-0.0667 28.35866,0 57.16666,0.80667 85.16666,8.06667 48,12 102.66667,26.66667 146.66667,52 -4.76267,-0.28934 -9.52,-0.42134 -14.28,-0.42134 -39.224,0 -78.33733,8.99867 -116.38667,13.75467 -15.16266,1.99467 -30.92133,2.796 -46.92133,2.796 m -263.17066,-18.3853 c -14.69467,-2.868 -28.78267,-6.884 -41.812,-12.57867 -1.14133,-1.90133 -2.472,-3.59466 -3.952,-5.13866 0.83734,-1.00934 1.84934,-2.02134 2.52267,-2.69334 0,-1.33333 -2.66667,-4 -4,-5.33333 4,0 10.66667,-4 13.33333,-4 -10.66666,-4 -24,-5.33333 -32,-12 11.39867,-3.01733 22.292,-5.86667 33.02,-8.46267 9.796,6.86134 18.43067,15.53867 24.144,24.75334 4.672,7.53333 7.51867,16.33733 8.744,25.45333 M 221.69178,188.2217 c -1.17067,-0.53067 -2.324,-1.07334 -3.476,-1.632 0.001,-0.45334 0.30933,-1.06 0.768,-1.71467 0.976,1.04533 1.88267,2.15467 2.708,3.34667 m -3.476,-1.628 -0.30267,-0.152 c 0.0987,0.0493 0.20267,0.1 0.30267,0.148 0,0.001 0,0.003 0,0.004 m -0.30267,-0.152 c -0.79333,-0.38667 -1.58133,-0.78 -2.364,-1.18134 l 2.364,1.18134"
     inkscape:connector-curvature="0" /><path
     id="path224"
     style="fill:#182b48;fill-opacity:1;fill-rule:nonzero;stroke:none;stroke-width:0.13333333"
     d="m 223.64511,189.09236 c -0.65333,-0.28533 -1.30533,-0.576 -1.95333,-0.87066 -0.82533,-1.192 -1.732,-2.30134 -2.708,-3.34667 0.20933,-0.3 0.45067,-0.61067 0.70933,-0.92133 1.48,1.544 2.81067,3.23733 3.952,5.13866"
     inkscape:connector-curvature="0" /><path
     id="path226"
     style="fill:#182b48;fill-opacity:1;fill-rule:nonzero;stroke:none;stroke-width:0.13333333"
     d="m 266.36244,201.8457 c -0.30266,-0.0573 -0.60266,-0.116 -0.90533,-0.17467 -1.22533,-9.116 -4.072,-17.92 -8.744,-25.45333 -5.71333,-9.21467 -14.348,-17.892 -24.144,-24.75334 0.19467,-0.0467 0.392,-0.0947 0.588,-0.14133 0.75867,0.56133 1.50933,1.13067 2.25333,1.70933 8.79067,6.832 17.87467,14.35467 23.14,24.384 3.904,7.43734 6.54667,15.81067 7.812,24.42934"
     inkscape:connector-curvature="0" /><path
     id="path228"
     style="fill:#ffffff;fill-opacity:1;fill-rule:nonzero;stroke:none;stroke-width:0.13333333"
     d="m 611.22377,290.98569 c 2.45067,-1.224 5.05867,-2.408 7.072,-4.312 1.87733,-1.77333 -0.956,-4.59866 -2.828,-2.828 -1.73733,1.64267 -4.14933,2.63067 -6.26133,3.68667 -2.308,1.15467 -0.28134,4.60533 2.01733,3.45333"
     inkscape:connector-curvature="0" /><path
     id="path230"
     style="fill:#ffffff;fill-opacity:1;fill-rule:nonzero;stroke:none;stroke-width:0.13333333"
     d="m 647.6291,268.00703 c 0.94933,-0.864 2.71867,-0.74534 3.92,-0.748 2.57867,0 2.57867,-4 0,-4 -2.39867,0.003 -4.89733,0.23466 -6.748,1.92 -1.91067,1.74266 0.92533,4.56266 2.828,2.828"
     inkscape:connector-curvature="0" /><path
     id="path232"
     style="fill:#ffffff;fill-opacity:1;fill-rule:nonzero;stroke:none;stroke-width:0.13333333"
     d="m 644.88243,259.25903 c 2.57867,0 2.57867,-4 0,-4 -2.58,0 -2.58,4 0,4"
     inkscape:connector-curvature="0" /><path
     id="path234"
     style="fill:#ffffff;fill-opacity:1;fill-rule:nonzero;stroke:none;stroke-width:0.13333333"
     d="m 682.21577,255.25903 c -0.33867,-0.0173 0.48,0.14133 0.324,0.0733 0.37733,0.16133 0.74,0.36 1.11066,0.53867 0.83467,0.40666 1.63334,0.672 2.56534,0.72133 1.08933,0.06 2,-0.952 2,-2 0,-1.132 -0.912,-1.94 -2,-2 0.33866,0.0187 -0.48134,-0.13733 -0.32534,-0.072 -0.37733,-0.15867 -0.74,-0.36 -1.11066,-0.54 -0.83467,-0.40267 -1.63334,-0.67067 -2.564,-0.72133 -1.09067,-0.0573 -2,0.956 -2,2 0,1.136 0.91066,1.94266 2,2"
     inkscape:connector-curvature="0" /><path
     id="path236"
     style="fill:#ffffff;fill-opacity:1;fill-rule:nonzero;stroke:none;stroke-width:0.13333333"
     d="m 659.5491,251.25903 c 2.57867,0 2.57867,-3.99867 0,-3.99867 -2.58,0 -2.58,3.99867 0,3.99867"
     inkscape:connector-curvature="0" /><path
     id="path238"
     style="fill:#ffffff;fill-opacity:1;fill-rule:nonzero;stroke:none;stroke-width:0.13333333"
     d="m 711.5491,247.26036 c 2.57867,0 2.57867,-4 0,-4 -2.58,0 -2.58,4 0,4"
     inkscape:connector-curvature="0" /><path
     id="path240"
     style="fill:#ffffff;fill-opacity:1;fill-rule:nonzero;stroke:none;stroke-width:0.13333333"
     d="m 742.21577,247.26036 c 2.57866,0 2.57866,-4 0,-4 -2.58,0 -2.58,4 0,4"
     inkscape:connector-curvature="0" /><path
     id="path242"
     style="fill:#ffffff;fill-opacity:1;fill-rule:nonzero;stroke:none;stroke-width:0.13333333"
     d="m 691.5491,268.59236 c 2.57867,0 2.57867,-4 0,-4 -2.58,0 -2.58,4 0,4"
     inkscape:connector-curvature="0" /><path
     id="path244"
     style="fill:#ffffff;fill-opacity:1;fill-rule:nonzero;stroke:none;stroke-width:0.13333333"
     d="m 652.88243,277.92569 c 2.57867,0 2.57867,-4 0,-4 -2.58,0 -2.58,4 0,4"
     inkscape:connector-curvature="0" /><path
     id="path246"
     style="fill:#ffffff;fill-opacity:1;fill-rule:nonzero;stroke:none;stroke-width:0.13333333"
     d="m 690.88243,258.59236 c 0,0.33333 0,0.66667 0,1 0,2.58133 4,2.58133 4,0 0,-0.33333 0,-0.66667 0,-1 0,-2.57733 -4,-2.57733 -4,0 0,0.33333 0,0.66667 0,1 0,2.58133 4,2.58133 4,0 0,-0.33333 0,-0.66667 0,-1 0,-2.57733 -4,-2.57733 -4,0"
     inkscape:connector-curvature="0" /><path
     id="path248"
     style="fill:#ffffff;fill-opacity:1;fill-rule:nonzero;stroke:none;stroke-width:0.13333333"
     d="m 711.5491,257.92569 c 2.57867,0 2.57867,-4 0,-4 -2.58,0 -2.58,4 0,4"
     inkscape:connector-curvature="0" /><path
     id="path250"
     style="fill:#ffffff;fill-opacity:1;fill-rule:nonzero;stroke:none;stroke-width:0.13333333"
     d="m 667.5491,271.25903 c 2.57867,0 2.57867,-4 0,-4 -2.58,0 -2.58,4 0,4"
     inkscape:connector-curvature="0" /><path
     id="path252"
     style="fill:#ffffff;fill-opacity:1;fill-rule:nonzero;stroke:none;stroke-width:0.13333333"
     d="m 671.5491,256.59236 c 2.57867,0 2.57867,-4 0,-4 -2.58,0 -2.58,4 0,4"
     inkscape:connector-curvature="0" /><path
     id="path254"
     style="fill:#ffffff;fill-opacity:1;fill-rule:nonzero;stroke:none;stroke-width:0.13333333"
     d="m 702.21577,240.59369 c 2.57866,0 2.57866,-4 0,-4 -2.58,0 -2.58,4 0,4"
     inkscape:connector-curvature="0" /><path
     id="path256"
     style="fill:#ffffff;fill-opacity:1;fill-rule:nonzero;stroke:none;stroke-width:0.13333333"
     d="m 746.21577,236.59369 c 0.2,0 0.40133,0.001 0.60266,0.008 0.22934,0.0173 0.15334,0.005 -0.224,-0.0373 0.34,0.1 0.12934,-0.0307 -0.62666,-0.39067 -0.35867,-0.756 -0.48934,-0.96533 -0.39067,-0.62533 -0.0413,-0.37733 -0.0547,-0.45333 -0.036,-0.224 0.0133,0.2 0.008,0.40267 0.008,0.60267 0.001,2.57866 4.00133,2.57866 4,0 -10e-4,-0.98667 -0.0987,-1.79467 -0.75333,-2.58134 -0.61334,-0.73466 -1.712,-0.752 -2.58,-0.752 -2.58,-10e-4 -2.58,3.99867 0,4"
     inkscape:connector-curvature="0" /><path
     id="path258"
     style="fill:#ffffff;fill-opacity:1;fill-rule:nonzero;stroke:none;stroke-width:0.13333333"
     d="m 770.21576,236.59369 c 2.57867,0 2.57867,-4 0,-4 -2.58,0 -2.58,4 0,4"
     inkscape:connector-curvature="0" /><path
     id="path260"
     style="fill:#ffffff;fill-opacity:1;fill-rule:nonzero;stroke:none;stroke-width:0.13333333"
     d="m 791.5491,236.59369 c 2.80133,-0.001 5.86533,0.0547 8.08,-1.92 1.92933,-1.71866 -0.908,-4.53733 -2.828,-2.828 -1.21867,1.08667 -3.764,0.74667 -5.252,0.748 -2.58,0.001 -2.58,4.00134 0,4"
     inkscape:connector-curvature="0" /><path
     id="path262"
     style="fill:#ffffff;fill-opacity:1;fill-rule:nonzero;stroke:none;stroke-width:0.13333333"
     d="m 828.88243,233.92703 c 0.88933,0 1.77733,0 2.66667,0 2.57866,0 2.57866,-4 0,-4 -0.88934,0 -1.77734,0 -2.66667,0 -2.58,0 -2.58,4 0,4"
     inkscape:connector-curvature="0" /><path
     id="path264"
     style="fill:#ffffff;fill-opacity:1;fill-rule:nonzero;stroke:none;stroke-width:0.13333333"
     d="m 846.21576,232.59369 c 2.57867,0 2.57867,-4 0,-4 -2.58,0 -2.58,4 0,4"
     inkscape:connector-curvature="0" /><path
     id="path266"
     style="fill:#ffffff;fill-opacity:1;fill-rule:nonzero;stroke:none;stroke-width:0.13333333"
     d="m 818.21576,229.92703 c 2.57867,0 2.57867,-4 0,-4 -2.58,0 -2.58,4 0,4"
     inkscape:connector-curvature="0" /><path
     id="path268"
     style="fill:#ffffff;fill-opacity:1;fill-rule:nonzero;stroke:none;stroke-width:0.13333333"
     d="m 806.21576,241.92703 c 2.57867,0 2.57867,-4 0,-4 -2.58,0 -2.58,4 0,4"
     inkscape:connector-curvature="0" /><path
     id="path270"
     style="fill:#ffffff;fill-opacity:1;fill-rule:nonzero;stroke:none;stroke-width:0.13333333"
     d="m 778.21576,240.59369 c 2.57867,0 2.57867,-4 0,-4 -2.58,0 -2.58,4 0,4"
     inkscape:connector-curvature="0" /><path
     id="path272"
     style="fill:#ffffff;fill-opacity:1;fill-rule:nonzero;stroke:none;stroke-width:0.13333333"
     d="m 784.88243,231.26036 c 1.77733,0 3.556,0 5.33333,0 2.57867,0 2.57867,-4 0,-4 -1.77733,0 -3.556,0 -5.33333,0 -2.58,0 -2.58,4 0,4"
     inkscape:connector-curvature="0" /><path
     id="path274"
     style="fill:#ffffff;fill-opacity:1;fill-rule:nonzero;stroke:none;stroke-width:0.13333333"
     d="m 752.88243,245.92703 c 2.57867,0 2.57867,-4 0,-4 -2.58,0 -2.58,4 0,4"
     inkscape:connector-curvature="0" /><path
     id="path276"
     style="fill:#ffffff;fill-opacity:1;fill-rule:nonzero;stroke:none;stroke-width:0.13333333"
     d="m 731.5491,243.26036 c 2.57867,0 2.57867,-4 0,-4 -2.58,0 -2.58,4 0,4"
     inkscape:connector-curvature="0" /><path
     id="path278"
     style="fill:#ffffff;fill-opacity:1;fill-rule:nonzero;stroke:none;stroke-width:0.13333333"
     d="m 718.21577,241.92703 c 2.57866,0 2.57866,-4 0,-4 -2.58,0 -2.58,4 0,4"
     inkscape:connector-curvature="0" /><path
     id="path280"
     style="fill:#ffffff;fill-opacity:1;fill-rule:nonzero;stroke:none;stroke-width:0.13333333"
     d="m 726.21577,260.59236 c 2.57866,0 2.57866,-4 0,-4 -2.58,0 -2.58,4 0,4"
     inkscape:connector-curvature="0" /><path
     id="path282"
     style="fill:#ffffff;fill-opacity:1;fill-rule:nonzero;stroke:none;stroke-width:0.13333333"
     d="m 683.5491,247.26036 c 2.57867,0 2.57867,-4 0,-4 -2.58,0 -2.58,4 0,4"
     inkscape:connector-curvature="0" /><path
     id="path284"
     style="fill:#ffffff;fill-opacity:1;fill-rule:nonzero;stroke:none;stroke-width:0.13333333"
     d="m 670.21577,275.25903 c 2.57866,0 2.57866,-4 0,-4 -2.58,0 -2.58,4 0,4"
     inkscape:connector-curvature="0" /><path
     id="path286"
     style="fill:#ffffff;fill-opacity:1;fill-rule:nonzero;stroke:none;stroke-width:0.13333333"
     d="m 571.5491,308.59236 c 2.57867,0 2.57867,-4 0,-4 -2.58,0 -2.58,4 0,4"
     inkscape:connector-curvature="0" /><path
     id="path288"
     style="fill:#ffffff;fill-opacity:1;fill-rule:nonzero;stroke:none;stroke-width:0.13333333"
     d="m 600.88244,299.25903 c 2.57866,0 2.57866,-4 0,-4 -2.58,0 -2.58,4 0,4"
     inkscape:connector-curvature="0" /><path
     id="path290"
     style="fill:#ffffff;fill-opacity:1;fill-rule:nonzero;stroke:none;stroke-width:0.13333333"
     d="m 632.21577,290.59236 c 0,-0.44267 0,-0.888 0,-1.33333 0,-2.57734 -4,-2.57734 -4,0 0,0.44533 0,0.89066 0,1.33333 0,2.58133 4,2.58133 4,0"
     inkscape:connector-curvature="0" /><path
     id="path292"
     style="fill:#ffffff;fill-opacity:1;fill-rule:nonzero;stroke:none;stroke-width:0.13333333"
     d="m 643.5491,283.25903 c 2.57867,0 2.57867,-4 0,-4 -2.58,0 -2.58,4 0,4"
     inkscape:connector-curvature="0" /><path
     id="path294"
     style="fill:#ffffff;fill-opacity:1;fill-rule:nonzero;stroke:none;stroke-width:0.13333333"
     d="m 587.5491,295.25903 c 2.57867,0 2.57867,-4 0,-4 -2.58,0 -2.58,4 0,4"
     inkscape:connector-curvature="0" /><path
     id="path296"
     style="fill:#ffffff;fill-opacity:1;fill-rule:nonzero;stroke:none;stroke-width:0.13333333"
     d="m 604.88244,268.59236 c 2.57866,0 2.57866,-4 0,-4 -2.58,0 -2.58,4 0,4"
     inkscape:connector-curvature="0" /><path
     id="path298"
     style="fill:#ffffff;fill-opacity:1;fill-rule:nonzero;stroke:none;stroke-width:0.13333333"
     d="m 631.5491,259.25903 c 2.57867,0 2.57867,-4 0,-4 -2.58,0 -2.58,4 0,4"
     inkscape:connector-curvature="0" /><path
     id="path300"
     style="fill:#ffffff;fill-opacity:1;fill-rule:nonzero;stroke:none;stroke-width:0.13333333"
     d="m 586.21577,283.25903 c 2.57867,0 2.57867,-4 0,-4 -2.58,0 -2.58,4 0,4"
     inkscape:connector-curvature="0" /><path
     id="path302"
     style="fill:#ffffff;fill-opacity:1;fill-rule:nonzero;stroke:none;stroke-width:0.13333333"
     d="m 627.5491,269.92569 c 2.57867,0 2.57867,-4 0,-4 -2.58,0 -2.58,4 0,4"
     inkscape:connector-curvature="0" /><path
     id="path304"
     style="fill:#ffffff;fill-opacity:1;fill-rule:nonzero;stroke:none;stroke-width:0.13333333"
     d="m 636.88243,275.25903 c 2.57867,0 2.57867,-4 0,-4 -2.58,0 -2.58,4 0,4"
     inkscape:connector-curvature="0" /><path
     id="path306"
     style="fill:#ffffff;fill-opacity:1;fill-rule:nonzero;stroke:none;stroke-width:0.13333333"
     d="m 604.88244,279.25903 c 2.57866,0 2.57866,-4 0,-4 -2.58,0 -2.58,4 0,4"
     inkscape:connector-curvature="0" /><path
     id="path308"
     style="fill:#ffffff;fill-opacity:1;fill-rule:nonzero;stroke:none;stroke-width:0.13333333"
     d="m 624.88244,275.25903 c 2.57866,0 2.57866,-4 0,-4 -2.58,0 -2.58,4 0,4"
     inkscape:connector-curvature="0" /><path
     id="path310"
     style="fill:#ffffff;fill-opacity:1;fill-rule:nonzero;stroke:none;stroke-width:0.13333333"
     d="m 611.5491,295.25903 c 2.57867,0 2.57867,-4 0,-4 -2.58,0 -2.58,4 0,4"
     inkscape:connector-curvature="0" /><path
     id="path312"
     style="fill:#ffffff;fill-opacity:1;fill-rule:nonzero;stroke:none;stroke-width:0.13333333"
     d="m 627.5491,288.59236 c 2.57867,0 2.57867,-4 0,-4 -2.58,0 -2.58,4 0,4"
     inkscape:connector-curvature="0" /><path
     id="path314"
     style="fill:#ffffff;fill-opacity:1;fill-rule:nonzero;stroke:none;stroke-width:0.13333333"
     d="m 622.21577,275.25903 c -0.444,0 -0.88933,0 -1.33333,0 -2.58,0 -2.58,4 0,4 0.444,0 0.88933,0 1.33333,0 2.57867,0 2.57867,-4 0,-4"
     inkscape:connector-curvature="0" /><path
     id="path316"
     style="fill:#ffffff;fill-opacity:1;fill-rule:nonzero;stroke:none;stroke-width:0.13333333"
     d="m 612.88244,280.59236 c 2.57866,0 2.57866,-4 0,-4 -2.58,0 -2.58,4 0,4"
     inkscape:connector-curvature="0" /><path
     id="path318"
     style="fill:#ffffff;fill-opacity:1;fill-rule:nonzero;stroke:none;stroke-width:0.13333333"
     d="m 542.21577,317.92569 c -0.444,0 -0.88933,0 -1.33333,0 -2.58,0 -2.58,4 0,4 0.444,0 0.88933,0 1.33333,0 2.57867,0 2.57867,-4 0,-4"
     inkscape:connector-curvature="0" /><path
     id="path320"
     style="fill:#ffffff;fill-opacity:1;fill-rule:nonzero;stroke:none;stroke-width:0.13333333"
     d="m 520.88244,329.92569 c 2.57866,0 2.57866,-4 0,-4 -2.58,0 -2.58,4 0,4"
     inkscape:connector-curvature="0" /><path
     id="path322"
     style="fill:#ffffff;fill-opacity:1;fill-rule:nonzero;stroke:none;stroke-width:0.13333333"
     d="m 500.88244,331.25903 c -0.20534,0 -0.408,0 -0.61067,-0.007 -0.228,-0.0187 -0.164,-0.005 0.188,0.036 -0.16267,-0.024 -0.45867,-0.17467 0.0973,0.0773 l -0.18266,-0.10933 c 0.47466,0.30267 0.0987,0.0733 -0.0107,-0.0253 -0.25467,-0.22934 -0.492,-0.476 -0.73467,-0.71867 -0.77066,-0.77067 -2.05733,-0.77067 -2.82799,0 -0.76934,0.77067 -0.77067,2.06 0,2.828 0.53066,0.53067 1.07333,1.11733 1.73866,1.47867 0.728,0.39866 1.532,0.44 2.34267,0.44 2.57866,0.003 2.57866,-3.99734 0,-4"
     inkscape:connector-curvature="0" /><path
     id="path324"
     style="fill:#ffffff;fill-opacity:1;fill-rule:nonzero;stroke:none;stroke-width:0.13333333"
     d="m 495.54911,337.92569 c 2.57866,0 2.57866,-4 0,-4 -2.58,0 -2.58,4 0,4"
     inkscape:connector-curvature="0" /><path
     id="path326"
     style="fill:#ffffff;fill-opacity:1;fill-rule:nonzero;stroke:none;stroke-width:0.13333333"
     d="m 527.5491,336.59236 c 2.57867,0 2.57867,-4 0,-4 -2.58,0 -2.58,4 0,4"
     inkscape:connector-curvature="0" /><path
     id="path328"
     style="fill:#ffffff;fill-opacity:1;fill-rule:nonzero;stroke:none;stroke-width:0.13333333"
     d="m 539.5491,332.59236 c 2.57867,0 2.57867,-4 0,-4 -2.58,0 -2.58,4 0,4"
     inkscape:connector-curvature="0" /><path
     id="path330"
     style="fill:#ffffff;fill-opacity:1;fill-rule:nonzero;stroke:none;stroke-width:0.13333333"
     d="m 559.5491,320.59236 c 0.444,0 0.88934,0 1.33334,0 2.57866,0 2.57866,-4 0,-4 -0.444,0 -0.88934,0 -1.33334,0 -2.58,0 -2.58,4 0,4"
     inkscape:connector-curvature="0" /><path
     id="path332"
     style="fill:#ffffff;fill-opacity:1;fill-rule:nonzero;stroke:none;stroke-width:0.13333333"
     d="m 579.5491,313.92569 c 2.57867,0 2.57867,-4 0,-4 -2.58,0 -2.58,4 0,4"
     inkscape:connector-curvature="0" /><path
     id="path334"
     style="fill:#ffffff;fill-opacity:1;fill-rule:nonzero;stroke:none;stroke-width:0.13333333"
     d="m 592.88244,305.92569 c 2.57866,0 2.57866,-4 0,-4 -2.58,0 -2.58,4 0,4"
     inkscape:connector-curvature="0" /><path
     id="path336"
     style="fill:#ffffff;fill-opacity:1;fill-rule:nonzero;stroke:none;stroke-width:0.13333333"
     d="m 546.21577,307.25903 c -0.20133,0 -0.40267,0 -0.604,-0.007 -0.228,-0.0187 -0.15333,-0.005 0.224,0.036 -0.33867,-0.0987 -0.12933,0.0307 0.62667,0.39067 0.36,0.75733 0.48933,0.96533 0.39066,0.628 0.0413,0.37733 0.0547,0.452 0.036,0.224 -0.012,-0.20134 -0.007,-0.404 -0.007,-0.60534 -0.001,-2.57733 -4.00134,-2.57733 -4,0 10e-4,0.988 0.0973,1.79467 0.752,2.58134 0.61333,0.73733 1.712,0.752 2.58133,0.752 2.57867,0.003 2.57867,-3.99734 0,-4"
     inkscape:connector-curvature="0" /><path
     id="path338"
     style="fill:#ffffff;fill-opacity:1;fill-rule:nonzero;stroke:none;stroke-width:0.13333333"
     d="m 563.5491,297.92569 c 2.57867,0 2.57867,-4 0,-4 -2.58,0 -2.58,4 0,4"
     inkscape:connector-curvature="0" /><path
     id="path340"
     style="fill:#ffffff;fill-opacity:1;fill-rule:nonzero;stroke:none;stroke-width:0.13333333"
     d="m 576.88244,296.59236 c 2.57866,0 2.57866,-4 0,-4 -2.58,0 -2.58,4 0,4"
     inkscape:connector-curvature="0" /><path
     id="path342"
     style="fill:#ffffff;fill-opacity:1;fill-rule:nonzero;stroke:none;stroke-width:0.13333333"
     d="m 559.5491,304.59236 c 2.57867,0 2.57867,-4 0,-4 -2.58,0 -2.58,4 0,4"
     inkscape:connector-curvature="0" /><path
     id="path344"
     style="fill:#ffffff;fill-opacity:1;fill-rule:nonzero;stroke:none;stroke-width:0.13333333"
     d="m 469.54911,341.25902 c 0,-0.44266 0,-0.888 0,-1.33333 0,-2.57733 -4,-2.57733 -4,0 0,0.44533 0,0.89067 0,1.33333 0,2.58134 4,2.58134 4,0"
     inkscape:connector-curvature="0" /><path
     id="path346"
     style="fill:#ffffff;fill-opacity:1;fill-rule:nonzero;stroke:none;stroke-width:0.13333333"
     d="m 500.88244,340.59236 c 2.57866,0 2.57866,-4 0,-4 -2.58,0 -2.58,4 0,4"
     inkscape:connector-curvature="0" /><path
     id="path348"
     style="fill:#ffffff;fill-opacity:1;fill-rule:nonzero;stroke:none;stroke-width:0.13333333"
     d="m 522.88244,331.92569 c 0,-0.44266 0,-0.888 0,-1.33333 0,-2.57733 -4,-2.57733 -4,0 0,0.44533 0,0.89067 0,1.33333 0,2.58134 4,2.58134 4,0"
     inkscape:connector-curvature="0" /><path
     id="path350"
     style="fill:#ffffff;fill-opacity:1;fill-rule:nonzero;stroke:none;stroke-width:0.13333333"
     d="m 530.21577,312.59236 c -0.444,0 -0.88933,0 -1.33333,0 -2.58,0 -2.58,4 0,4 0.444,0 0.88933,0 1.33333,0 2.57867,0 2.57867,-4 0,-4"
     inkscape:connector-curvature="0" /><path
     id="path352"
     style="fill:#ffffff;fill-opacity:1;fill-rule:nonzero;stroke:none;stroke-width:0.13333333"
     d="m 507.5491,328.59236 c 2.57867,0 2.57867,-4 0,-4 -2.58,0 -2.58,4 0,4"
     inkscape:connector-curvature="0" /><path
     id="path354"
     style="fill:#ffffff;fill-opacity:1;fill-rule:nonzero;stroke:none;stroke-width:0.13333333"
     d="m 522.21577,327.25903 c 2.57867,0 2.57867,-4 0,-4 -2.58,0 -2.58,4 0,4"
     inkscape:connector-curvature="0" /><path
     id="path356"
     style="fill:#ffffff;fill-opacity:1;fill-rule:nonzero;stroke:none;stroke-width:0.13333333"
     d="m 536.88244,319.25903 c 2.57866,0 2.57866,-4 0,-4 -2.58,0 -2.58,4 0,4"
     inkscape:connector-curvature="0" /><path
     id="path358"
     style="fill:#ffffff;fill-opacity:1;fill-rule:nonzero;stroke:none;stroke-width:0.13333333"
     d="m 482.21577,339.25902 c 2.57867,0 2.57867,-3.99999 0,-3.99999 -2.58,0 -2.58,3.99999 0,3.99999"
     inkscape:connector-curvature="0" /><path
     id="path360"
     style="fill:#ffffff;fill-opacity:1;fill-rule:nonzero;stroke:none;stroke-width:0.13333333"
     d="m 454.21577,348.59236 c 2.57867,0 2.57867,-4 0,-4 -2.58,0 -2.58,4 0,4"
     inkscape:connector-curvature="0" /><path
     id="path362"
     style="fill:#ffffff;fill-opacity:1;fill-rule:nonzero;stroke:none;stroke-width:0.13333333"
     d="m 824.88243,235.26036 c 0.444,0 0.88933,0 1.33333,0 2.57867,0 2.57867,-4 0,-4 -0.444,0 -0.88933,0 -1.33333,0 -2.58,0 -2.58,4 0,4"
     inkscape:connector-curvature="0" /><path
     id="path364"
     style="fill:#ffffff;fill-opacity:1;fill-rule:nonzero;stroke:none;stroke-width:0.13333333"
     d="m 852.88243,235.26036 c 2.57867,0 2.57867,-4 0,-4 -2.58,0 -2.58,4 0,4"
     inkscape:connector-curvature="0" /><path
     id="path366"
     style="fill:#ffffff;fill-opacity:1;fill-rule:nonzero;stroke:none;stroke-width:0.13333333"
     d="m 868.21576,229.26036 c 0,-0.444 0,-0.88933 0,-1.33333 0,-2.58 -4,-2.58 -4,0 0,0.444 0,0.88933 0,1.33333 0,2.57867 4,2.57867 4,0"
     inkscape:connector-curvature="0" /><path
     id="path368"
     style="fill:#ffffff;fill-opacity:1;fill-rule:nonzero;stroke:none;stroke-width:0.13333333"
     d="m 866.21576,231.26036 0.24667,0.0133 c -0.57733,-0.0453 -0.10667,-0.008 0.0227,0.0173 0.24533,0.0493 0.488,0.116 0.73066,0.18133 0.58,0.15467 1.13734,0.312 1.73867,0.37067 0.98933,0.0973 1.95467,-0.57734 2.21733,-1.532 0.26667,-0.968 -0.228,-1.79734 -0.876,-2.46534 -0.75733,-0.78266 -2.06666,-0.76133 -2.828,0 -0.78,0.78 -0.75733,2.04667 0,2.828 l 0.196,0.20934 c -0.28666,-0.29467 -0.42666,-0.66267 -0.42,-1.10267 0.0907,-0.33733 0.18134,-0.67333 0.272,-1.00933 l -0.0147,0.0293 c 0.23866,-0.23867 0.47866,-0.47733 0.71866,-0.71733 0.49734,-0.37334 0.792,-0.24134 1.17867,-0.18134 l -0.31867,-0.0693 c -0.268,-0.0653 -0.53333,-0.14533 -0.80133,-0.21733 -0.66933,-0.18267 -1.36533,-0.33467 -2.06267,-0.35467 -1.09066,-0.0307 -2,0.932 -2,2 0,1.11333 0.90934,1.96933 2,2"
     inkscape:connector-curvature="0" /><path
     id="path370"
     style="fill:#ffffff;fill-opacity:1;fill-rule:nonzero;stroke:none;stroke-width:0.13333333"
     d="m 836.88243,220.59369 c -0.444,0 -0.88933,0 -1.33333,0 -2.58,0 -2.58,4 0,4 0.444,0 0.88933,0 1.33333,0 2.57867,0 2.57867,-4 0,-4"
     inkscape:connector-curvature="0" /><path
     id="path372"
     style="fill:#ffffff;fill-opacity:1;fill-rule:nonzero;stroke:none;stroke-width:0.13333333"
     d="m 838.88243,222.59369 -10e-4,0.3 c -0.003,0.40267 0.12133,-0.484 0.0453,-0.25466 0.172,-0.29467 0.34267,-0.588 0.51467,-0.88267 l -0.016,0.0147 c 0.47066,-0.196 0.94266,-0.39067 1.41333,-0.58667 l -0.02,-0.003 c 0.336,0.092 0.67333,0.18267 1.00933,0.27334 0.59734,0.388 0.36667,0.28133 0.19334,0.12 -0.19467,-0.18267 -0.41867,-0.344 -0.64267,-0.492 -0.53067,-0.352 -1.21067,-0.46134 -1.82933,-0.48934 -1.09067,-0.0493 -2,0.94667 -2,2 0,1.128 0.91066,1.95067 2,2 -0.49734,-0.0227 0.26,0.13334 -0.292,-0.11333 0.468,0.20933 -0.16,-0.16667 -0.005,-0.0227 0.484,0.456 0.89334,0.64134 1.56667,0.724 1.51867,0.18934 2.06267,-1.42266 2.064,-2.588 0.003,-2.58 -3.99733,-2.58 -4,0"
     inkscape:connector-curvature="0" /><path
     id="path374"
     style="fill:#ffffff;fill-opacity:1;fill-rule:nonzero;stroke:none;stroke-width:0.13333333"
     d="m 592.88244,280.59236 c 2.57866,0 2.57866,-4 0,-4 -2.58,0 -2.58,4 0,4"
     inkscape:connector-curvature="0" /><path
     id="path376"
     style="fill:#ffffff;fill-opacity:1;fill-rule:nonzero;stroke:none;stroke-width:0.13333333"
     d="m 606.21577,288.59236 c 2.57867,0 2.57867,-4 0,-4 -2.58,0 -2.58,4 0,4"
     inkscape:connector-curvature="0" /><path
     id="path378"
     style="fill:#ffffff;fill-opacity:1;fill-rule:nonzero;stroke:none;stroke-width:0.13333333"
     d="m 596.88244,285.92569 c 2.57866,0 2.57866,-4 0,-4 -2.58,0 -2.58,4 0,4"
     inkscape:connector-curvature="0" /><path
     id="path380"
     style="fill:#ffffff;fill-opacity:1;fill-rule:nonzero;stroke:none;stroke-width:0.13333333"
     d="m 578.21577,289.92569 c 2.57867,0 2.57867,-4 0,-4 -2.58,0 -2.58,4 0,4"
     inkscape:connector-curvature="0" /><path
     id="path382"
     style="fill:#ffffff;fill-opacity:1;fill-rule:nonzero;stroke:none;stroke-width:0.13333333"
     d="m 598.21577,233.92703 c 2.57867,0 2.57867,-4 0,-4 -2.58,0 -2.58,4 0,4"
     inkscape:connector-curvature="0" /><path
     id="path384"
     style="fill:#ffffff;fill-opacity:1;fill-rule:nonzero;stroke:none;stroke-width:0.13333333"
     d="m 698.21577,217.92703 c 2.57866,0 2.57866,-4 0,-4 -2.58,0 -2.58,4 0,4"
     inkscape:connector-curvature="0" /><path
     id="path386"
     style="fill:#ffffff;fill-opacity:1;fill-rule:nonzero;stroke:none;stroke-width:0.13333333"
     d="m 752.88243,220.59369 c 2.57867,0 2.57867,-4 0,-4 -2.58,0 -2.58,4 0,4"
     inkscape:connector-curvature="0" /><path
     id="path388"
     style="fill:#ffffff;fill-opacity:1;fill-rule:nonzero;stroke:none;stroke-width:0.13333333"
     d="m 827.5491,209.92703 c 0.88933,0 1.77733,0 2.66666,0 2.57867,0 2.57867,-4 0,-4 -0.88933,0 -1.77733,0 -2.66666,0 -2.58,0 -2.58,4 0,4"
     inkscape:connector-curvature="0" /><path
     id="path390"
     style="fill:#ffffff;fill-opacity:1;fill-rule:nonzero;stroke:none;stroke-width:0.13333333"
     d="m 832.88243,209.92703 c -0.444,0 -0.88933,0 -1.33333,0 -2.58,0 -2.58,4 0,4 0.444,0 0.88933,0 1.33333,0 2.57867,0 2.57867,-4 0,-4"
     inkscape:connector-curvature="0" /><path
     id="path392"
     style="fill:#ffffff;fill-opacity:1;fill-rule:nonzero;stroke:none;stroke-width:0.13333333"
     d="m 636.88243,181.92703 c 2.57867,0 2.57867,-4 0,-4 -2.58,0 -2.58,4 0,4"
     inkscape:connector-curvature="0" /><path
     id="path394"
     style="fill:#ffffff;fill-opacity:1;fill-rule:nonzero;stroke:none;stroke-width:0.13333333"
     d="m 506.21577,165.92703 c 2.57867,0 2.57867,-4 0,-4 -2.58,0 -2.58,4 0,4"
     inkscape:connector-curvature="0" /><path
     id="path396"
     style="fill:#ffffff;fill-opacity:1;fill-rule:nonzero;stroke:none;stroke-width:0.13333333"
     d="m 412.88244,224.59369 c 2.57867,0 2.57867,-4 0,-4 -2.58,0 -2.58,4 0,4"
     inkscape:connector-curvature="0" /><path
     id="path398"
     style="fill:#ffffff;fill-opacity:1;fill-rule:nonzero;stroke:none;stroke-width:0.13333333"
     d="m 554.21577,237.92703 c 2.57867,0 2.57867,-4 0,-4 -2.58,0 -2.58,4 0,4"
     inkscape:connector-curvature="0" /><path
     id="path400"
     style="fill:#ffffff;fill-opacity:1;fill-rule:nonzero;stroke:none;stroke-width:0.13333333"
     d="m 628.88244,187.26036 c 2.57866,0 2.57866,-4 0,-4 -2.58,0 -2.58,4 0,4"
     inkscape:connector-curvature="0" /><path
     id="path402"
     style="fill:#ffffff;fill-opacity:1;fill-rule:nonzero;stroke:none;stroke-width:0.13333333"
     d="m 474.21577,172.5937 c -0.44533,0 -0.88933,0 -1.33333,0 -2.58,0 -2.58,4 0,4 0.444,0 0.888,0 1.33333,0 2.57867,0 2.57867,-4 0,-4"
     inkscape:connector-curvature="0" /><path
     id="path404"
     style="fill:#ffffff;fill-opacity:1;fill-rule:nonzero;stroke:none;stroke-width:0.13333333"
     d="m 529.5491,214.59369 c 0,-0.444 0,-0.88933 0,-1.33333 0,-2.58 -4,-2.58 -4,0 0,0.444 0,0.88933 0,1.33333 0,2.57867 4,2.57867 4,0"
     inkscape:connector-curvature="0" /><path
     id="path406"
     style="fill:#ffffff;fill-opacity:1;fill-rule:nonzero;stroke:none;stroke-width:0.13333333"
     d="m 570.21577,171.26036 c 2.57867,0 2.57867,-4 0,-4 -2.58,0 -2.58,4 0,4"
     inkscape:connector-curvature="0" /><path
     id="path408"
     style="fill:#ffffff;fill-opacity:1;fill-rule:nonzero;stroke:none;stroke-width:0.13333333"
     d="m 378.21577,155.26036 c 2.57867,0 2.57867,-4 0,-4 -2.58,0 -2.58,4 0,4"
     inkscape:connector-curvature="0" /><path
     id="path410"
     style="fill:#ffffff;fill-opacity:1;fill-rule:nonzero;stroke:none;stroke-width:0.13333333"
     d="m 515.5491,128.5937 c 2.57867,0 2.57867,-4 0,-4 -2.58,0 -2.58,4 0,4"
     inkscape:connector-curvature="0" /><path
     id="path412"
     style="fill:#ffffff;fill-opacity:1;fill-rule:nonzero;stroke:none;stroke-width:0.13333333"
     d="m 624.88244,171.26036 c 2.57866,0 2.57866,-4 0,-4 -2.58,0 -2.58,4 0,4"
     inkscape:connector-curvature="0" /><path
     id="path414"
     style="fill:#6dbdeb;fill-opacity:1;fill-rule:nonzero;stroke:none;stroke-width:0.13333333"
     d="m 835.29576,252.35903 c 30.864,23.12666 62.14134,45.72933 92.05196,70.096 12.3507,10.06 25.464,18.25199 40.172,24.45333 16.3147,6.87733 33.19868,12.28933 49.10938,20.11733 0.5773,0.284 1.084,-0.57867 0.5053,-0.86533 -14.024,-6.89867 -28.77998,-11.96267 -43.28668,-17.716 -18.5746,-7.36667 -34.18,-17.29733 -49.6653,-29.844 -28.74399,-23.29067 -58.78532,-44.92667 -88.38132,-67.10667 -0.51734,-0.38533 -1.01467,0.48267 -0.50534,0.86534"
     inkscape:connector-curvature="0" /><path
     id="path416"
     style="fill:#6dbdeb;fill-opacity:1;fill-rule:nonzero;stroke:none;stroke-width:0.13333333"
     d="m 853.96243,249.69236 c 41.50533,21.836 68.89069,63.356 111.99999,82.66667 0.584,0.26 1.0933,-0.6 0.5053,-0.86534 -43.1026,-19.30666 -70.49329,-60.828 -111.99996,-82.66533 -0.57066,-0.3 -1.076,0.564 -0.50533,0.864"
     inkscape:connector-curvature="0" /><path
     id="path418"
     style="fill:#6dbdeb;fill-opacity:1;fill-rule:nonzero;stroke:none;stroke-width:0.13333333"
     d="m 873.8611,246.94836 c 19.86666,17.212 40.17462,34.46533 65.55462,42.79333 0.6147,0.20267 0.8747,-0.764 0.2654,-0.964 -25.2214,-8.276 -45.36936,-25.432 -65.11202,-42.53866 -0.48534,-0.41867 -1.19467,0.28533 -0.708,0.70933"
     inkscape:connector-curvature="0" /><path
     id="path420"
     style="fill:#6dbdeb;fill-opacity:1;fill-rule:nonzero;stroke:none;stroke-width:0.13333333"
     d="m 879.29576,236.35903 c 12.10267,9.22666 25.48266,15.90533 40.11996,20.04933 0.6214,0.17733 0.8854,-0.78933 0.2654,-0.964 -14.5574,-4.12 -27.85469,-10.78133 -39.88002,-19.94933 -0.51334,-0.39067 -1.01067,0.47866 -0.50534,0.864"
     inkscape:connector-curvature="0" /><path
     id="path422"
     style="fill:#6dbdeb;fill-opacity:1;fill-rule:nonzero;stroke:none;stroke-width:0.13333333"
     d="m 880.7491,225.74169 c 8.82533,2.544 17.568,5.26267 26.66662,6.66667 0.6307,0.0973 0.9014,-0.86533 0.2654,-0.96267 -9.0987,-1.40533 -17.84002,-4.12266 -26.66669,-6.66666 -0.62133,-0.18 -0.884,0.784 -0.26533,0.96266"
     inkscape:connector-curvature="0" /><path
     id="path424"
     style="fill:#6dbdeb;fill-opacity:1;fill-rule:nonzero;stroke:none;stroke-width:0.13333333"
     d="m 880.88243,213.76036 c 7.62133,-0.003 15.276,0.028 22.79869,-1.352 0.6346,-0.116 0.3653,-1.07867 -0.2654,-0.96267 -7.43329,1.36267 -15.00262,1.312 -22.53329,1.31467 -0.64533,0 -0.64533,1 0,1"
     inkscape:connector-curvature="0" /><path
     id="path426"
     style="fill:#6dbdeb;fill-opacity:1;fill-rule:nonzero;stroke:none;stroke-width:0.13333333"
     d="m 877.01443,203.07503 c 9.13467,-2.51467 18.39067,-3.88533 27.86799,-3.98133 0.644,-0.007 0.644,-1.00667 0,-1 -9.58132,0.0973 -18.89999,1.47333 -28.13332,4.01866 -0.62134,0.16934 -0.35734,1.13467 0.26533,0.96267"
     inkscape:connector-curvature="0" /><path
     id="path428"
     style="fill:#6dbdeb;fill-opacity:1;fill-rule:nonzero;stroke:none;stroke-width:0.13333333"
     d="m 877.13443,192.35903 c 8.13067,-5.28 16.944,-9.076 26.54669,-10.61733 0.636,-0.10134 0.3653,-1.06534 -0.2654,-0.964 -9.69862,1.55866 -18.57596,5.38533 -26.78662,10.71733 -0.53734,0.34933 -0.0373,1.216 0.50533,0.864"
     inkscape:connector-curvature="0" /><path
     id="path430"
     style="fill:#6dbdeb;fill-opacity:1;fill-rule:nonzero;stroke:none;stroke-width:0.13333333"
     d="m 874.5691,184.2817 c 13.00266,-12.84267 27.60002,-23.632 43.89862,-31.92267 0.5747,-0.29333 0.069,-1.156 -0.5053,-0.864 -16.3827,8.33467 -31.03332,19.17333 -44.10132,32.07733 -0.45867,0.45467 0.24933,1.16134 0.708,0.70934"
     inkscape:connector-curvature="0" /><path
     id="path432"
     style="fill:#6dbdeb;fill-opacity:1;fill-rule:nonzero;stroke:none;stroke-width:0.13333333"
     d="m 865.23576,177.6137 c 17.432,-18.55734 37.78666,-34.02134 59.89866,-46.588 0.56,-0.31867 0.056,-1.18267 -0.5053,-0.864 -22.184,12.60933 -42.60936,28.12533 -60.10136,46.74533 -0.44,0.46933 0.26534,1.17733 0.708,0.70667"
     inkscape:connector-curvature="0" /><path
     id="path434"
     style="fill:#6dbdeb;fill-opacity:1;fill-rule:nonzero;stroke:none;stroke-width:0.13333333"
     d="m 857.23576,172.28036 c 28.11734,-30.856 64.50666,-53.296 97.33336,-78.666657 0.5093,-0.39334 -0.204,-1.096 -0.708,-0.70667 -32.8107,25.358667 -69.22269,47.819997 -97.33336,78.666667 -0.432,0.47466 0.272,1.184 0.708,0.70666"
     inkscape:connector-curvature="0" /><path
     id="path436"
     style="fill:#6dbdeb;fill-opacity:1;fill-rule:nonzero;stroke:none;stroke-width:0.13333333"
     d="m 846.5691,169.6137 c 38.02,-40.51867 83.32532,-74.141337 133.23202,-98.587997 0.58,-0.284 0.072,-1.14667 -0.5054,-0.864 -49.9746,24.48133 -95.36129,58.170657 -133.43462,98.745327 -0.44,0.46933 0.26533,1.17867 0.708,0.70667"
     inkscape:connector-curvature="0" /><path
     id="path438"
     style="fill:#6dbdeb;fill-opacity:1;fill-rule:nonzero;stroke:none;stroke-width:0.13333333"
     d="M 825.23576,176.28036 C 875.3171,122.73903 939.88912,80.836363 1005.8011,49.692373 c 0.5826,-0.276 0.075,-1.13734 -0.5054,-0.864 -40.29198,19.03866 -78.59728,42.05999 -114.35194,68.655987 -23.55866,17.52534 -46.332,36.61734 -66.416,58.08934 -0.43866,0.46933 0.26667,1.17866 0.708,0.70666"
     inkscape:connector-curvature="0" /></svg>